<svg xmlns="http://www.w3.org/2000/svg" xmlns:xlink="http://www.w3.org/1999/xlink" viewBox="0 0 887.2 121.58"><defs><linearGradient id="a" y1="60.79" x2="887.2" y2="60.79" gradientUnits="userSpaceOnUse"><stop offset="0" stop-color="#278ea5"/><stop offset="1" stop-color="#1f4287"/></linearGradient></defs><path d="M72.7,4.76Q62.11,0,45.18,0H0V115H36.15V78.86h9q16.92,0,27.52-4.76T88.31,60.46q5-8.87,5-21,0-12.32-5-21.11T72.7,4.76ZM55.37,47.32q-3.45,2.79-10.19,2.79h-9V28.75h9q6.74,0,10.19,2.79a9.6,9.6,0,0,1,3.45,7.89A9.57,9.57,0,0,1,55.37,47.32Zm152.55,12.4a40.83,40.83,0,0,0,5-20.29,40.71,40.71,0,0,0-5-20.37q-5-8.88-15.61-14T164.79,0H116.32V115h36.15V78.86h5L177.93,115h41.9l-27.5-41.25Q202.92,68.68,207.92,59.72Zm-34.34-12.9a9.46,9.46,0,0,1-4.52,3.7,19.85,19.85,0,0,1-7.56,1.23h-9V30.4h9a19.85,19.85,0,0,1,7.56,1.23,9.71,9.71,0,0,1,4.52,3.61,10.41,10.41,0,0,1,1.56,5.83A10.49,10.49,0,0,1,173.58,46.82ZM318.37,39a25.85,25.85,0,0,0-8.74-5.29,31.67,31.67,0,0,0-10.94-1.84,31.23,31.23,0,0,0-10.79,1.84A25.9,25.9,0,0,0,279.15,39a24.59,24.59,0,0,0-5.85,8.25A26.3,26.3,0,0,0,271.18,58a28.3,28.3,0,0,0,2,10.83,24.92,24.92,0,0,0,14.39,14,32.78,32.78,0,0,0,22.22,0,24.92,24.92,0,0,0,14.39-14,28.3,28.3,0,0,0,2-10.83,27.14,27.14,0,0,0-2-10.72A23.89,23.89,0,0,0,318.37,39ZM468.66,6.9Q454.28,0,434.24,0H389.06V115h45.18q20,0,34.42-6.9a50,50,0,0,0,22-19.8q7.65-12.9,7.64-30.81,0-18.06-7.64-30.88A50.12,50.12,0,0,0,468.66,6.9ZM458,71.63a18.73,18.73,0,0,1-6.66,7.89,23.89,23.89,0,0,1-9,3.45,58.72,58.72,0,0,1-9.7.82h-5.91V31.22h5.91a58.72,58.72,0,0,1,9.7.82,23.89,23.89,0,0,1,9,3.45A18.76,18.76,0,0,1,458,43.37q2.55,5.27,2.55,14.13T458,71.63Zm127.58,2.3q0,6.9-3.54,11.26T571.1,89.54q-7.4,0-10.93-4.35t-3.53-11.26V0H520.49V77.22q0,12.33,4,20.78a35.31,35.31,0,0,0,11.09,13.64,47.34,47.34,0,0,0,16.18,7.56,79.48,79.48,0,0,0,38.61,0,47.39,47.39,0,0,0,16.19-7.56A35.49,35.49,0,0,0,617.68,98q4-8.46,4-20.78V0H585.56ZM768.91,0H726.85L691.53,42.57V0H653.74V115h37.79V68.39L727.67,115h43.7L724.06,53.89Zm16.43,0V32H818.2v83h36.14V32H887.2V0Z" style="fill:url(#a)"/></svg>