<?xml version="1.0" encoding="UTF-8"?>
<svg id="Layer_1" xmlns="http://www.w3.org/2000/svg" viewBox="0 0 1080 1080">
  <defs>
    <style>
      .cls-1 {
        fill: #fff;
      }
    </style>
  </defs>
  <rect width="1080" height="1080"/>
  <path class="cls-1" d="M800.21,279.78s0,0,0,0c-69.5-69.5-161.93-107.79-260.22-107.79s-190.71,38.28-260.22,107.79c-64.86,64.86-102.99,150.9-107.36,242.27-5.13,107.28,36.58,211.18,114.43,285.06,69.26,65.72,158.86,100.91,253.06,100.91,22.55,0,45.37-2.02,68.23-6.12,50.93-9.13,100.26-29.87,142.65-59.98,49.77-35.35,88.88-80.03,116.24-132.81,26.8-51.7,40.97-110.18,40.97-169.11,0-98.3-38.28-190.71-107.79-260.22ZM252.59,540c0-149.17,116.41-275.02,265.01-286.52.23-.02.46-.03.68-.03,2.55,0,4.95,1.11,6.52,3.05,37.89,46.86,101.46,146,101.46,283.5,0,48.06-9.88,171.9-101.41,283.57-1.69,2.06-4.38,3.17-7.17,2.95-148.65-11.46-265.09-137.32-265.09-286.52Z"/>
</svg>