{"accessors":[{"name":"head_1_positions","componentType":5126,"count":5695,"min":[-6.031263828277588,-8.198745727539062,-6.469593048095703],"max":[6.031263828277588,8.198745727539062,6.469593048095703],"type":"VEC3","bufferView":0,"byteOffset":0},{"name":"head_1_normals","componentType":5126,"count":5695,"min":[-0.9992640018463135,-0.9987689852714539,-0.9968910217285156],"max":[0.9992640018463135,0.9998530149459839,1],"type":"VEC3","bufferView":0,"byteOffset":68340},{"name":"head_1_texcoords","componentType":5126,"count":5695,"min":[0.003800000064074993,0.002300000051036477],"max":[0.9955999851226807,0.9994000196456909],"type":"VEC2","bufferView":1,"byteOffset":0},{"name":"head_1_0_indices","componentType":5123,"count":8343,"min":[0],"max":[5694],"type":"SCALAR","bufferView":2,"byteOffset":0}],"asset":{"generator":"obj2gltf","version":"2.0"},"buffers":[{"name":"input","byteLength":198928,"uri":"data:application/octet-stream;base64,"}],"bufferViews":[{"name":"bufferView_0","buffer":0,"byteLength":136680,"byteOffset":0,"byteStride":12,"target":34962},{"name":"bufferView_1","buffer":0,"byteLength":45560,"byteOffset":136680,"byteStride":8,"target":34962},{"name":"bufferView_2","buffer":0,"byteLength":16688,"byteOffset":182240,"target":34963}],"materials":[{"name":"default","pbrMetallicRoughness":{"baseColorFactor":[0.5,0.5,0.5,1],"metallicFactor":0,"roughnessFactor":1},"emissiveFactor":[0,0,0],"alphaMode":"OPAQUE","doubleSided":false}],"meshes":[{"name":"head_1","primitives":[{"attributes":{"POSITION":0,"NORMAL":1,"TEXCOORD_0":2},"indices":3,"material":0,"mode":4}]}],"nodes":[{"name":"head","mesh":0}],"scene":0,"scenes":[{"nodes":[0]}]}
