<svg xmlns="http://www.w3.org/2000/svg" xmlns:xlink="http://www.w3.org/1999/xlink" viewBox="0 0 1000 1000"><defs><style>.a,.e,.i{fill:none;}.b{fill:#fff;}.c{fill:#a95260;}.d{fill:url(#a);}.e{stroke:#f9c900;}.e,.i,.j{stroke-miterlimit:10;}.f{fill:url(#b);}.g{fill:url(#c);}.h{clip-path:url(#d);}.i,.j{stroke:#000;stroke-width:2px;}.k{fill:url(#e);}.l{fill:url(#f);}.m{fill:url(#g);}.n{fill:url(#i);}.o{fill:url(#j);}.p{fill:url(#k);}.q{fill:url(#l);}.r{fill:url(#m);}.s{fill:url(#n);}</style><linearGradient id="a" x1="816" y1="593" x2="954" y2="593" gradientUnits="userSpaceOnUse"><stop offset="0" stop-color="#f9c900"/><stop offset="0.42" stop-color="#f9c900" stop-opacity="0.72"/><stop offset="1" stop-color="#f9c900" stop-opacity="0.3"/></linearGradient><linearGradient id="b" x1="558.29" y1="254.06" x2="558.29" y2="938.29" gradientUnits="userSpaceOnUse"><stop offset="0" stop-color="#77b0ae"/><stop offset="0.2" stop-color="#72a7ab"/><stop offset="0.53" stop-color="#6490a2"/><stop offset="0.94" stop-color="#4d6993"/><stop offset="1" stop-color="#496391"/></linearGradient><linearGradient id="c" x1="657.39" y1="382.12" x2="235.63" y2="382.12" gradientTransform="translate(400.98 -203.81) rotate(45)" gradientUnits="userSpaceOnUse"><stop offset="0" stop-color="#f9c900"/><stop offset="1" stop-color="#f9c900" stop-opacity="0"/></linearGradient><clipPath id="d"><rect class="a" x="318.35" y="254.06" width="479.87" height="479.87"/></clipPath><linearGradient id="e" x1="692" x2="816" xlink:href="#a"/><linearGradient id="f" x1="682" x2="826" xlink:href="#a"/><linearGradient id="g" x1="235.58" y1="390.25" x2="826" y2="390.25" xlink:href="#a"/><linearGradient id="i" x1="231.63" y1="215.55" x2="382.52" y2="366.44" gradientTransform="matrix(0.71, 1.43, -0.71, 1.43, 355.35, -505.95)" gradientUnits="userSpaceOnUse"><stop offset="0" stop-color="#496391"/><stop offset="0.47" stop-color="#496391"/><stop offset="0.48" stop-color="#496391"/><stop offset="0.69" stop-color="#496391" stop-opacity="0.56"/><stop offset="0.9" stop-color="#496391" stop-opacity="0.16"/><stop offset="1" stop-color="#496391" stop-opacity="0"/></linearGradient><linearGradient id="j" x1="284.73" y1="244.47" x2="173.65" y2="244.47" gradientTransform="translate(240 -90.46) rotate(45)" gradientUnits="userSpaceOnUse"><stop offset="0" stop-color="#77b0ae"/><stop offset="1" stop-color="#496391"/></linearGradient><linearGradient id="k" x1="274.71" y1="388.97" x2="183.66" y2="388.97" gradientTransform="translate(342.17 -48.13) rotate(45)" gradientUnits="userSpaceOnUse"><stop offset="0" stop-color="#84999b"/><stop offset="1" stop-color="#615f85"/></linearGradient><linearGradient id="l" x1="264.7" y1="533.47" x2="193.68" y2="533.47" gradientTransform="translate(444.35 -5.81) rotate(45)" gradientUnits="userSpaceOnUse"><stop offset="0" stop-color="#908187"/><stop offset="1" stop-color="#795b79"/></linearGradient><linearGradient id="m" x1="254.69" y1="677.97" x2="203.69" y2="677.97" gradientTransform="translate(546.53 36.51) rotate(45)" gradientUnits="userSpaceOnUse"><stop offset="0" stop-color="#9d6a74"/><stop offset="1" stop-color="#91566c"/></linearGradient><linearGradient id="n" x1="826" x2="910" xlink:href="#a"/></defs><title>moscow</title><rect class="b" width="1000" height="1000"/><rect class="c" x="617.23" width="383.14" height="1000.14"/><path class="c" d="M708.92,734H440.24V868.34a22.39,22.39,0,0,0,44.78,0V804.9a22.39,22.39,0,1,1,44.78,0v21.15a22.39,22.39,0,1,0,44.78,0V791.22a22.39,22.39,0,0,1,44.78,0V790a22.39,22.39,0,0,0,44.78,0v1.24a22.39,22.39,0,0,1,44.78,0V915.61a22.39,22.39,0,0,0,44.78,0V734Z"/><circle class="d" cx="885" cy="593" r="69"/><rect class="e" x="127.74" y="144.3" width="202.91" height="200.34" transform="translate(-105.74 233.67) rotate(-45)"/><rect class="e" x="134.9" y="151.38" width="188.58" height="186.19" transform="translate(-105.74 233.67) rotate(-45)"/><rect class="e" x="142.07" y="158.45" width="174.25" height="172.04" transform="translate(-105.74 233.67) rotate(-45)"/><rect class="e" x="149.23" y="165.53" width="159.92" height="157.89" transform="translate(-105.74 233.67) rotate(-45)"/><rect class="e" x="156.4" y="172.6" width="145.59" height="143.74" transform="translate(-105.74 233.67) rotate(-45)"/><rect class="e" x="163.56" y="179.67" width="131.26" height="129.6" transform="translate(-105.74 233.67) rotate(-45)"/><rect class="e" x="170.73" y="186.75" width="116.93" height="115.45" transform="translate(-105.74 233.67) rotate(-45)"/><rect class="e" x="177.89" y="193.82" width="102.6" height="101.3" transform="translate(-105.74 233.67) rotate(-45)"/><rect class="e" x="185.06" y="200.9" width="88.27" height="87.15" transform="translate(-105.74 233.67) rotate(-45)"/><path class="c" d="M321.92,243H708.1A101.19,101.19,0,0,1,809.29,344.19V730.36A14.64,14.64,0,0,1,794.65,745H408.44A101.16,101.16,0,0,1,307.29,643.84V257.64A14.64,14.64,0,0,1,321.92,243Z"/><polygon class="c" points="192.38 56.77 117.16 132 536.29 551.13 536.29 420 555.61 420 192.38 56.77"/><path class="f" d="M798.22,733.94V345.76a91.7,91.7,0,0,0-91.69-91.7H419.59a98,98,0,0,0-69.79,29.73,3,3,0,0,0-.25.25l-.8.79-.66.65a96.74,96.74,0,0,0-29.74,69.81v287a91.7,91.7,0,0,0,91.7,91.7h74.17V868c0,11.24,8.08,21.1,19.2,22.68a22.48,22.48,0,0,0,25.8-22.19v-63.1c0-11.23,8.07-21.09,19.18-22.68A22.52,22.52,0,0,1,574.22,805v20.69c0,11.23,8.07,21.09,19.18,22.68a22.51,22.51,0,0,0,25.82-22.26V791.7c0-11.23,8.07-21.09,19.18-22.67a22.51,22.51,0,0,1,25.82,22.26v-1.07a22,22,0,0,0,44,0v1.07A22.51,22.51,0,0,1,734,769c11.11,1.58,19.18,11.44,19.18,22.67V915.37c0,11.24,8.08,21.1,19.2,22.68a22.48,22.48,0,0,0,25.8-22.19V733.94Z"/><rect class="g" x="445.18" y="85.22" width="2.65" height="593.8" transform="translate(-139.42 427.65) rotate(-45)"/><g class="h"><line class="i" x1="468.57" y1="780.57" x2="765.59" y2="483.55"/><line class="i" x1="365.5" y1="783" x2="765.5" y2="383"/></g><circle class="j" cx="765.01" cy="383.48" r="7.5"/><circle class="j" cx="765.11" cy="484.04" r="3.75"/><rect class="k" x="692" y="531" width="124" height="124" rx="34.76"/><rect class="l" x="682" y="521" width="144" height="144" rx="40.36"/><path class="m" d="M785.64,521H722.36a40.15,40.15,0,0,0-23.88,7.83L285.15,115.5l-49.57,49.57L682,611.49v13.15A40.36,40.36,0,0,0,722.36,665h63.28A40.36,40.36,0,0,0,826,624.64V561.36A40.36,40.36,0,0,0,785.64,521Z"/><rect class="l" x="682" y="521" width="144" height="144" rx="40.36"/><line class="i" x1="229.4" y1="822.4" x2="668.54" y2="383.26"/><path class="n" d="M344.83,134.53h0a43.79,43.79,0,0,1,43.79,43.79V566.76a0,0,0,0,1,0,0H344.83a0,0,0,0,1,0,0V134.53A0,0,0,0,1,344.83,134.53Z" transform="translate(-140.53 362.01) rotate(-45)"/><rect class="o" x="184.84" y="200.69" width="88.7" height="87.57" rx="16.37" transform="translate(-105.74 233.67) rotate(-45)"/><rect class="p" x="192.52" y="352.77" width="73.34" height="72.41" rx="14.5" transform="translate(-207.92 275.99) rotate(-45)"/><rect class="q" x="200.2" y="504.85" width="57.98" height="57.25" rx="12.62" transform="translate(-310.09 318.31) rotate(-45)"/><rect class="r" x="207.88" y="656.93" width="42.63" height="42.09" rx="10.75" transform="translate(-412.27 360.63) rotate(-45)"/><rect class="c" x="215.55" y="809.01" width="27.27" height="26.92" rx="8.87" transform="translate(-514.45 402.96) rotate(-45)"/><circle class="s" cx="868" cy="593" r="42"/></svg>