<svg xmlns="http://www.w3.org/2000/svg" viewBox="0 0 850.13 771.45"><g id="Layer_2" data-name="Layer 2"><g id="Ebene_1" data-name="Ebene 1"><path d="M822.3,327.46c-17.75-38.64-43.36-74.12-76.13-105.47a413.59,413.59,0,0,0-89-64.38,129.62,129.62,0,0,0,20.09,1.85l1.71,0c30.47,0,59.42-11.3,83.74-32.68A146.76,146.76,0,0,0,792.2,91.58,106.67,106.67,0,0,0,805.62,32.5L803.79,0,779.18,21.31a86.83,86.83,0,0,1-28.34,16.3c-9.63,3.37-16.18,3.87-25.24,4.57a226,226,0,0,0-26.83,3.3c-20.91,3.92-49.53,9.28-69.13,28.85C615,88.89,608.07,109.46,610,132.23c-1.08.65-2.15,1.3-3.21,2a487,487,0,0,0-115.06-29.5,5.28,5.28,0,0,1-3.28-1.82c-4.62-5.37-9.25-10.79-13.76-16.12-7.82-9.26-14.33-24.57-19.09-35.75-2.2-5.17-4.11-9.64-6-13.2-1.73-3.32-7-13.41-18.23-13.41a17.84,17.84,0,0,0-13.19,6c-5.47,5.94-8.8,17.85-10.52,30.59a86.07,86.07,0,0,0-13.53-8.11C377,44.61,357.06,39.28,343.49,39.28c-15.73,0-21,8.07-22.8,12.87-1,2.62-3.32,11.51,4.91,19.58A95.25,95.25,0,0,0,308,70.1c-14.18,0-31.82,3.38-39.27,10.92a17.25,17.25,0,0,0-5.1,12.33c.09,6.69,4.53,14.37,14.26,16.46a53.14,53.14,0,0,0,6.14.82c5.31.5,12.35,1.17,17.36,4.91A465.87,465.87,0,0,0,190,159.17c-38,21-71.56,46.76-99.72,76.61C61.66,266.11,39.37,299.85,24,336.06A299.32,299.32,0,0,0,0,453.46c0,48,11.5,92.95,34.18,133.53,21.52,38.52,52.61,72.28,92.41,100.36,38.4,27.09,83.79,48.12,134.92,62.5,50.95,14.33,106,21.6,163.55,21.6s112.6-7.27,163.56-21.6c51.12-14.38,96.52-35.41,134.92-62.5C763.33,659.27,794.43,625.51,816,587c22.68-40.58,34.18-85.5,34.18-133.53A300,300,0,0,0,822.3,327.46ZM640.94,85.65c16.11-16.07,41.41-20.81,60.77-24.44,25.1-4.7,34.51-1.53,54.41-8.49A102.49,102.49,0,0,0,789.65,33.4a91.54,91.54,0,0,1-11.41,50.36c-1.74,3.1-34.77,59.72-99.27,59.72h-1.5a121.26,121.26,0,0,1-44.37-9.39l2.41-1.44c7.45-4.53,14.63-9,22-13.16s15-8,22.68-11.51,15.59-6.83,23.58-9.85c4-1.57,8-3,12-4.43,2-.8,4-1.67,6-2.5l3-1.25,3-1.34a209.16,209.16,0,0,0,23.36-11.88,109.44,109.44,0,0,0,10.82-7.41c.86-.68,1.67-1.41,2.51-2.11s1.6-1.5,2.37-2.26a31.42,31.42,0,0,0,2.15-2.47,11.83,11.83,0,0,0,1.71-2.77,11.35,11.35,0,0,1-2,2.49c-.75.76-1.58,1.44-2.4,2.12s-1.7,1.28-2.59,1.88-1.78,1.18-2.7,1.72a104.25,104.25,0,0,1-11.4,5.79,203.45,203.45,0,0,1-24.15,8.52l-3.06.91-3.1.84c-2.07.56-4.13,1.09-6.19,1.68-4.14,1.32-8.31,2.55-12.43,4q-12.4,4.09-24.57,9c-8.1,3.3-16.11,6.92-23.94,10.87s-15.48,8.27-23,12.37c-1.21.67-2.41,1.32-3.62,2C626,102.15,636.5,90.08,640.94,85.65ZM425.06,755.45C199.14,755.45,16,639.63,16,453.46c0-155.79,128.25-286.9,302.49-325.54a5.37,5.37,0,0,0,4-6.48c-1.13-4.91-2.78-10.07-7.55-15.13C301.46,92,279.64,96.18,279.6,93.15c0-2.27,12.21-7.05,28.37-7.05a78,78,0,0,1,19.76,2.5,92.55,92.55,0,0,1,35.65,19.09,3.15,3.15,0,0,0,2.07.8,3.28,3.28,0,0,0,3.21-3.72c-.49-4.33-.69-8.56-2-13.2-6.52-22.93-32.84-28.71-30.94-33.91.58-1.58,3.42-2.38,7.78-2.38,9.71,0,27,4,43.79,12,15.08,7.21,25.41,19.23,31.19,27.5a2.22,2.22,0,0,0,1.83,1,2.36,2.36,0,0,0,2.33-2.59c-2.11-25.44,4.25-52.79,8.79-52.79,5.18,0,14.29,36.82,31.06,56.68,5,5.9,9.67,11.38,13.86,16.25a21.21,21.21,0,0,0,13.33,7.23,473.26,473.26,0,0,1,101.05,24.63l-1.24.92-2.68,2.05c-.9.71-1.75,1.38-2.72,2.18l-.1.08a10.29,10.29,0,0,0-.76.72,9,9,0,1,0,13.1,12.4c.61-.65,1.38-1.42,2.1-2.13l2.22-2.17c1.5-1.44,3-2.87,4.56-4.26,1.07-1,2.17-1.93,3.26-2.89,133.83,55.41,225.67,169.55,225.67,301.38C834.13,639.63,651,755.45,425.06,755.45Z"/><path d="M522.28,550.39a8,8,0,0,0-8,8c0,26.13-43.34,48.2-94.64,48.2S325,584.52,325,558.39a8,8,0,0,0-16,0c0,36,48.6,64.2,110.63,64.2s110.64-28.2,110.64-64.2A8,8,0,0,0,522.28,550.39Z"/><path d="M412.22,561.09a10,10,0,0,0,14.84,0l26.6-29.37a10,10,0,0,0,2.22-3.93,1.16,1.16,0,0,0,0-.18,8,8,0,0,0,.27-1.38,10,10,0,0,0-10-11.24H393a9.92,9.92,0,0,0-9.61,7.22l-.06.19a10.24,10.24,0,0,0-.33,2,9.79,9.79,0,0,0,2.58,7.34Z"/><path d="M742.74,458.32c-.32-1.65-.69-3.2-1.06-4.64a207.85,207.85,0,0,0-9.78-30.28,203.83,203.83,0,0,0-42.48-64.88,197.86,197.86,0,0,0-63.16-43.84A194.39,194.39,0,0,0,440,331.83a35.72,35.72,0,0,1-40.72,0A194.37,194.37,0,0,0,213,314.68a197.79,197.79,0,0,0-63.17,43.84,204,204,0,0,0-42.47,64.88,206.65,206.65,0,0,0-9.78,30.28c-.38,1.44-.75,3-1.06,4.63a209,209,0,0,0-4.67,40.46c0,1.37,0,2.68,0,4,0,1.7,0,3.4.11,5.09,0,.14,0,.28,0,.42.07,1.63.17,3.27.29,4.9,0,.17,0,.35,0,.53.14,1.62.3,3.25.5,4.86,0,.16,0,.32,0,.48.21,1.65.44,3.3.71,4.94,0,.1,0,.2,0,.3q.42,2.57.94,5.11h0a138.37,138.37,0,0,0,8,25.86l0,.06c.69,1.65,1.43,3.31,2.19,5l.1.21q1.13,2.41,2.34,4.8l.18.35c.8,1.55,1.62,3.1,2.48,4.65l.27.47q1.17,2.09,2.41,4.14l.58,1c.72,1.17,1.45,2.33,2.2,3.49l1.1,1.69c.65,1,1.32,2,2,3,.27.39.52.78.79,1.18,17,24.24,41.11,45.88,71.66,64.32,61.36,37,142.59,57.42,228.75,57.42S587,686.5,648.39,649.47C679,631,703.06,609.39,720.05,585.15l.8-1.18q1-1.49,2-3l1.08-1.68c.75-1.16,1.49-2.32,2.2-3.49l.59-1c.83-1.37,1.63-2.76,2.41-4.15l.26-.46q1.29-2.32,2.49-4.66l.17-.34q1.23-2.38,2.34-4.8a2,2,0,0,0,.1-.21q1.15-2.47,2.2-5l0,0a137.44,137.44,0,0,0,8-25.86h0q.53-2.55.94-5.11c0-.1,0-.2,0-.3.26-1.64.5-3.29.7-4.94l.06-.48c.19-1.61.36-3.24.49-4.86,0-.18,0-.36,0-.53.13-1.63.23-3.27.3-4.9,0-.14,0-.28,0-.42.06-1.69.1-3.39.1-5.09,0-1.28,0-2.59-.05-4A209.63,209.63,0,0,0,742.74,458.32ZM419.64,690.89c-117.53,0-219.86-39.25-273-97.21a16.31,16.31,0,0,0,2.44-2.54c34.68-45.42,100.74-80.09,181.24-95.13,20.35-3.8,35.92-19.53,40.65-41.05,4.93-22.49-3.46-45.23-21.39-57.94a194.17,194.17,0,0,0-198.34-16c33.51-40.63,83.47-66.42,139.29-66.42a178.11,178.11,0,0,1,99.82,30.54,51.7,51.7,0,0,0,58.59,0,178.08,178.08,0,0,1,99.82-30.54c55.81,0,105.78,25.79,139.29,66.42A194.19,194.19,0,0,0,489.7,397c-17.93,12.71-26.32,35.45-21.38,58,4.72,21.51,20.29,37.24,40.64,41,80.5,15,146.56,49.71,181.25,95.13a16.25,16.25,0,0,0,2.43,2.54C639.51,651.64,537.18,690.89,419.64,690.89ZM218.47,452.67c0-20.25,23.37-36.1,53.21-36.1s53.2,15.85,53.2,36.1a8,8,0,0,1-16,0c0-9.51-15.28-20.1-37.2-20.1s-37.21,10.59-37.21,20.1a8,8,0,0,1-16,0Zm402.22,0a8,8,0,1,1-16,0c0-9.51-15.28-20.1-37.21-20.1s-37.2,10.59-37.2,20.1a8,8,0,1,1-16,0c0-20.25,23.37-36.1,53.2-36.1S620.69,432.42,620.69,452.67Z"/></g></g></svg>