<svg xmlns="http://www.w3.org/2000/svg" viewBox="0 0 374.64 374.64"><defs><style>.cls-1{fill:none;stroke:#000;stroke-miterlimit:10;stroke-width:16px;}.cls-2{fill:#000;}</style></defs><g id="Layer_2" data-name="Layer 2"><g id="Ebene_2" data-name="Ebene 2"><path class="cls-1" d="M187.32,0V374.64"/><path class="cls-1" d="M78.5,46.2c7.07,0,17.53,0,30.25.26,17.13.34,25.78.54,29.95,1.75,18.56,5.37,30.12,19.94,36.82,28.38A104.44,104.44,0,0,1,186.8,94.2"/><path class="cls-1" d="M11.43,154.37c7.07,0,84.6-2.16,97.32-1.91,17.13.34,25.78.54,29.95,1.75,18.56,5.37,30.12,19.94,36.82,28.38A104.44,104.44,0,0,1,186.8,200.2"/><path class="cls-1" d="M345.21,99.2c-7.07,0-67.13,0-79.85.26-17.12.34-25.77.54-30,1.75-18.56,5.37-30.12,19.94-36.81,28.38a103.16,103.16,0,0,0-11.28,17.61"/><path class="cls-1" d="M366.83,205.2c-7.08,0-88.75,0-101.47.26-17.12.34-25.77.54-30,1.75-18.56,5.37-30.12,19.94-36.81,28.38a103.16,103.16,0,0,0-11.28,17.61"/><path class="cls-1" d="M186.78,288.69c-7.3,0-18.1,0-31.22.2-17.68.28-26.6.43-30.91,1.4-19.16,4.3-31.09,16-38,22.72A82.91,82.91,0,0,0,75,327.11"/><path class="cls-1" d="M187.38,288.69c7.3,0,18.1,0,31.23.2,17.67.28,26.59.43,30.91,1.4,19.15,4.3,31.08,16,38,22.72a83.57,83.57,0,0,1,11.64,14.1"/><path class="cls-1" d="M186.87,323.92c-5.25,0-13,0-22.43.14-12.7.19-19.11.29-22.21,1-13.75,2.94-22.32,10.92-27.29,15.55a57.66,57.66,0,0,0-8.36,9.65"/><path class="cls-1" d="M187.3,323.92c5.24,0,13,0,22.43.14,12.69.19,19.1.29,22.2,1,13.76,2.94,22.33,10.92,27.29,15.55a57.66,57.66,0,0,1,8.36,9.65"/><path class="cls-2" d="M129.86,51.14a36.93,36.93,0,0,0-23,35.75,31.68,31.68,0,0,0,23-35.75Z"/><path class="cls-2" d="M215.86,44.14a36.93,36.93,0,0,0-23,35.75,31.68,31.68,0,0,0,23-35.75Z"/><path class="cls-2" d="M281.86,62.14a36.93,36.93,0,0,0-23,35.75,31.68,31.68,0,0,0,23-35.75Z"/><path class="cls-2" d="M281.86,168.14a36.93,36.93,0,0,0-23,35.75,31.68,31.68,0,0,0,23-35.75Z"/><path class="cls-2" d="M99.86,158.14a36.93,36.93,0,0,0-23,35.75,31.68,31.68,0,0,0,23-35.75Z"/><path class="cls-2" d="M140.63,154.37a36.89,36.89,0,0,0-24-35.05,31.66,31.66,0,0,0,24,35.05Z"/><path class="cls-2" d="M334,234.16a36.93,36.93,0,0,0-34.84-24.32A31.66,31.66,0,0,0,334,234.16Z"/><path class="cls-2" d="M244.63,146.37a36.89,36.89,0,0,0-24-35.05,31.66,31.66,0,0,0,24,35.05Z"/><ellipse class="cls-2" cx="68.5" cy="117.89" rx="8.5" ry="13.06"/><ellipse class="cls-2" cx="150.06" cy="99.65" rx="8.5" ry="13.06"/><ellipse class="cls-2" cx="150.06" cy="209.65" rx="8.5" ry="13.06"/><ellipse class="cls-2" cx="220.34" cy="171.2" rx="8.5" ry="13.06"/><ellipse class="cls-2" cx="299.15" cy="132.39" rx="8.5" ry="13.06"/><ellipse class="cls-2" cx="60" cy="231.8" rx="8.5" ry="13.06"/><ellipse class="cls-2" cx="245.06" cy="44.65" rx="8.5" ry="13.06"/><ellipse class="cls-2" cx="250.55" cy="240.09" rx="8.5" ry="13.06"/><path class="cls-2" d="M187.32,16A171.32,171.32,0,0,1,308.46,308.46,171.32,171.32,0,1,1,66.18,66.18,170.19,170.19,0,0,1,187.32,16m0-16C83.87,0,0,83.87,0,187.32S83.87,374.64,187.32,374.64s187.32-83.87,187.32-187.32S290.77,0,187.32,0Z"/></g></g></svg>