<svg xmlns="http://www.w3.org/2000/svg" viewBox="0 0 374.64 374.64"><defs><style>.cls-1{stroke:#000;stroke-miterlimit:10;stroke-width:7px;}</style></defs><g id="Layer_2" data-name="Layer 2"><g id="Ebene_2" data-name="Ebene 2"><rect x="178.82" width="17" height="374.64"/><path d="M179.21,98a95.09,95.09,0,0,0-10.35-16.17c-6.2-7.81-16.57-20.88-32.52-25.5-3.19-.92-13.49-1.13-27.76-1.41-10.09-.2-20.21-.29-30-.25l-.06-17c10,0,20.23,0,30.45.25,19.07.38,27,.6,32.15,2.08,21.16,6.13,34.14,22.48,41.11,31.26a112.67,112.67,0,0,1,12.2,19.07Z"/><path d="M179.21,204a95.09,95.09,0,0,0-10.35-16.17c-6.2-7.81-16.57-20.88-32.52-25.5-3.19-.92-13.49-1.13-27.76-1.41-8.21-.16-45.83.73-70.71,1.33-13.89.33-23.93.57-26.42.58l0-17c2.31,0,13.32-.27,26.06-.57,26.53-.64,62.88-1.51,71.46-1.34,19.07.38,27,.6,32.15,2.08,21.16,6.13,34.14,22.48,41.11,31.26a112.67,112.67,0,0,1,12.2,19.07Z"/><rect x="185.36" y="83.61" width="123.51" height="17"/><rect x="185.36" y="188.09" width="103.85" height="17"/><path d="M82.14,331.75,67.9,322.47a91.66,91.66,0,0,1,12.81-15.54c7.19-7,20.57-20.1,42.07-24.93,5.07-1.14,13.17-1.31,32.65-1.61,10.45-.16,21-.22,31.37-.2l0,17c-10.26,0-20.72,0-31.07.2-15.43.24-25.63.4-29.18,1.19-16.8,3.78-27.51,14.25-33.91,20.5A75.92,75.92,0,0,0,82.14,331.75Z"/><path d="M292,331.75a75.06,75.06,0,0,0-10.46-12.66c-6.4-6.26-17.12-16.73-33.91-20.51-3.56-.79-13.75-.95-29.18-1.19-10.35-.16-20.82-.23-31.08-.2l0-17c10.37,0,20.93,0,31.38.2,19.47.3,27.58.47,32.64,1.61,21.51,4.83,34.88,17.9,42.07,24.93a92.2,92.2,0,0,1,12.82,15.54Z"/><path d="M113.6,355l-14-9.6a66.2,66.2,0,0,1,9.58-11.07c5.33-5,15.25-14.21,31.31-17.64,4-.86,10.2-.95,23.85-1.15,7.56-.11,15.16-.16,22.58-.14l0,17c-7.33,0-14.82,0-22.29.14-10.57.15-18.21.27-20.55.77-11.46,2.45-18.57,9.07-23.27,13.46A48.87,48.87,0,0,0,113.6,355Z"/><path d="M260.56,355a48.74,48.74,0,0,0-7.13-8.23c-4.71-4.39-11.82-11-23.28-13.46-2.34-.5-10-.62-20.55-.77-7.46-.11-15-.16-22.28-.14l0-17c7.41,0,15,0,22.57.14,13.65.2,19.88.29,23.86,1.15,16.06,3.43,26,12.67,31.3,17.64a66.66,66.66,0,0,1,9.59,11.07Z"/><path class="cls-1" d="M129.86,51.14a36.93,36.93,0,0,0-23,35.75,31.68,31.68,0,0,0,23-35.75Z"/><path class="cls-1" d="M99.86,158.14a36.93,36.93,0,0,0-23,35.75,31.68,31.68,0,0,0,23-35.75Z"/><path class="cls-1" d="M150.63,154.37a36.89,36.89,0,0,0-24-35.05,31.66,31.66,0,0,0,24,35.05Z"/><ellipse class="cls-1" cx="68.5" cy="117.89" rx="8.5" ry="13.06"/><ellipse class="cls-1" cx="106.58" cy="258.9" rx="8.5" ry="13.06"/><ellipse class="cls-1" cx="150.06" cy="209.65" rx="8.5" ry="13.06"/><ellipse class="cls-1" cx="60" cy="231.8" rx="8.5" ry="13.06"/><path d="M187.32,17A170.31,170.31,0,0,1,307.75,307.75,170.31,170.31,0,1,1,66.89,66.89,169.19,169.19,0,0,1,187.32,17m0-17C83.87,0,0,83.87,0,187.32S83.87,374.64,187.32,374.64s187.32-83.87,187.32-187.32S290.77,0,187.32,0Z"/></g></g></svg>