<svg id="main" xmlns="http://www.w3.org/2000/svg" viewBox="0 0 1024 1024"><defs><style>.cls-1{fill:#605d56;}.cls-2{fill:#fff;}</style></defs><rect id="backdrop" class="cls-1" width="1024" height="1024" rx="224.77"/><path id="symbol" class="cls-2" d="M854.15,460.64H779.93a16.53,16.53,0,0,1-16.48-17.84l15-189.08A16.52,16.52,0,0,0,762,235.89H660.41a16.52,16.52,0,0,0-16.47,15.2L622.4,519a10.65,10.65,0,0,1-19.21,5.42L397.89,242.68a16.53,16.53,0,0,0-13.36-6.79H303.24a16.52,16.52,0,0,0-16.47,15.21L271.33,445.42a16.52,16.52,0,0,1-16.47,15.22H175.39a16.53,16.53,0,0,0-16.48,15.21l-8,100.9a16.52,16.52,0,0,0,16.47,17.83h74.22a16.53,16.53,0,0,1,16.48,17.83L245.53,770.28A16.52,16.52,0,0,0,262,788.11H362.85A16.53,16.53,0,0,0,379.32,773l22.2-266.45a10.64,10.64,0,0,1,19.22-5.36l203,280.14a16.53,16.53,0,0,0,13.38,6.82h83.62a16.52,16.52,0,0,0,16.47-15.21l13-163.1a16.52,16.52,0,0,1,16.47-15.22h79.47a16.53,16.53,0,0,0,16.48-15.22l8-100.89A16.52,16.52,0,0,0,854.15,460.64Z"/></svg>