<?xml version="1.0" encoding="utf-8"?>
<!-- Generator: Adobe Illustrator 24.3.0, SVG Export Plug-In . SVG Version: 6.00 Build 0)  -->
<svg version="1.1" id="logo_1_" xmlns="http://www.w3.org/2000/svg" xmlns:xlink="http://www.w3.org/1999/xlink" x="0px" y="0px"
	 viewBox="0 0 499 238.5" style="enable-background:new 0 0 499 238.5;" xml:space="preserve">
<style type="text/css">
	.st0{fill-rule:evenodd;clip-rule:evenodd;}
</style>
<path id="logo" class="st0" d="M80.4,16.6c-2.1,0-4.6,0.4-7.3,1.3c-2.7,1-5.8,2.5-8.7,4.8c-2.9,2.3-5.8,5.8-8.7,10.2s-5.4,10-7.5,17
	c-2.3,6.9-4,15.2-5.4,25.3c-1.3,9.8-2.1,21.6-2.1,34.9c0,12.7,0.8,23.9,2.1,33.4c1.3,9.4,3.3,17.4,5.6,23.9c2.3,6.6,5,12,7.9,16.2
	c2.9,4.2,6.2,7.5,9.4,9.8c3.3,2.3,6.6,3.9,9.8,4.8c3.3,1,6.4,1.3,9.3,1.3c3.1,0,6.2-0.4,9.3-1.2c3.1-0.8,6.2-1.9,9.3-3.5
	s6-3.3,8.7-5.4c2.7-2.1,5.4-4.6,7.7-7.3l5.2,5.4c-2.3,2.9-5.2,6-8.5,8.9c-3.3,3.1-7.1,5.8-11.4,8.3c-4.4,2.5-9.3,4.4-14.7,6.2
	c-5.4,1.5-11.4,2.3-17.9,2.3c-10.2,0-19.9-1.9-28.5-6c-8.9-3.9-16.4-10-22.9-18.5c-6.6-8.3-11.6-19.1-15.4-32
	C1.9,143.6,0,128.2,0,109.9c0-17,1.9-32,5.8-44.9s9.3-23.7,16-32.2c6.7-8.7,14.7-15.2,23.7-19.5c9.1-4.4,18.7-6.6,28.9-6.6
	c6.7,0,12.9,0.6,18.7,1.9s10.4,3.3,14.5,5.6c4,2.5,7.1,5.6,9.4,9.3c2.3,3.7,3.3,7.9,3.3,12.5c0,2.1-0.4,4.4-1,6.7
	c-0.8,2.3-1.7,4.4-3.3,6.4s-3.3,3.5-5.4,4.8c-2.1,1.3-4.6,1.9-7.3,1.9c-2.5,0-4.4-0.6-5.8-1.7c-1.3-1.2-2.3-2.5-3.1-4.4
	c-0.6-1.7-1.2-3.9-1.3-6.2c-0.2-2.3-0.4-4.6-0.4-7.1c0-2.5-0.2-4.8-0.6-7.1s-0.8-4.4-1.7-6.2s-1.9-3.3-3.7-4.4
	C85.4,17.2,83.1,16.6,80.4,16.6z M173.3,85.6c2.9-4.6,6.2-8.7,9.4-12.3c1.3-1.5,2.9-3.1,4.6-4.6c1.7-1.5,3.3-2.9,5-4
	c1.7-1.2,3.7-2.1,5.4-2.9c1.9-0.8,3.7-1.2,5.6-1.2c4,0,7.1,1.2,9.4,3.7c2.3,2.3,3.5,5.8,3.5,10.2c0,2.7-0.2,5.2-0.6,7.7
	c-0.4,2.5-1.3,5.6-2.5,9.1H210c-0.4-2.5-1.5-4.4-3.3-6.2c-1.7-1.5-4.2-2.5-7.5-2.5c-2.5,0-4.8,0.4-7.1,1.3c-2.3,1-4.6,2.1-6.9,3.5
	c-2.3,1.3-4.4,2.9-6.4,4.4s-3.9,3.1-5.4,4.4v76.9c0,1-0.2,2.3-0.4,3.7c-0.4,1.3-1.2,2.7-2.3,4c-1.2,1.3-3.1,2.3-5.4,3.3
	c-2.3,1-5.6,1.3-9.8,1.3c-4.2,0-7.3-0.6-9.8-1.5c-2.3-1-4.2-2.1-5.4-3.5c-1.2-1.3-2.1-2.7-2.3-4c-0.4-1.3-0.4-2.5-0.4-3.5V81.6
	c0-2.3-0.6-4.2-1.5-6s-2.9-2.5-5.4-2.5c-1.3,0-2.5,0.2-3.5,0.8c-1,0.4-1.9,1.2-3.1,1.9l-2.5-2.9c1.7-1.5,3.9-2.9,6-4.4
	c2.3-1.5,4.6-2.7,7.1-3.9s5.4-1.9,8.3-2.7s6.2-1.2,9.4-1.2s6.2,0.4,8.7,1.3c2.3,1,4.4,2.1,5.8,3.5c1.5,1.5,2.7,3.1,3.7,4.8
	s1.5,3.7,1.9,5.6c0.4,1.9,0.8,3.7,0.8,5.4S173.3,84.5,173.3,85.6z M281.9,122.2c0-1.9-0.6-3.5-1.9-4.4c-1.2-1-2.9-1.5-4.8-1.5
	c-2.7,0-5.4,0.6-7.7,1.9c-2.5,1.3-4.6,3.1-6.6,5.6c-1.9,2.5-3.3,5.4-4.4,9.1c-1.2,3.7-1.7,7.7-1.7,12.5c0,4.6,0.4,8.3,1,11.4
	s1.5,5.4,2.7,7.1c1.2,1.7,2.5,3.1,3.9,3.7c1.3,0.6,3.1,1.2,4.6,1.2c2.1,0,3.9-0.6,5.8-1.5c1.7-1.2,3.3-2.5,4.6-4
	c1.3-1.7,2.3-3.5,3.1-5.6s1.2-4,1.2-6.2v-29.1H281.9z M263.2,70.2c-2.7,0-5.2,0.4-7.3,1c-2.3,0.6-4.2,1.3-5.8,2.3
	c-1.7,1-2.9,1.9-3.9,3.1s-1.3,2.3-1.3,3.3c0,1.2,0.6,2.1,1.7,2.5c1.2,0.6,2.5,1.2,4,1.7c1.5,0.6,2.9,1.5,4,2.9
	c1.2,1.2,1.7,3.1,1.7,5.6c0,1.7-0.4,3.1-1,4.6c-0.6,1.3-1.5,2.7-2.7,3.7c-1.2,1.2-2.5,1.9-4,2.5c-1.5,0.6-3.1,1-4.8,1
	c-4.4,0-7.9-1.5-10.6-4.4c-2.7-3.1-4-6.9-4-12c0-4.8,1.2-8.9,3.7-12.3c2.5-3.5,5.8-6.2,9.8-8.5c4-2.1,8.7-3.9,13.7-4.8
	c5-1.2,10.2-1.5,15.2-1.5c6.2,0,12,0.6,17.5,1.9c5.6,1.3,10.4,3.5,14.7,6.4s7.7,6.6,10.2,11.2c2.5,4.4,3.9,10,3.9,16.4v66.9
	c0,0.8,0,1.5,0.2,2.3c0,1,0.2,1.7,0.6,2.3s0.8,1.3,1.3,1.7c0.6,0.4,1.5,0.8,2.7,0.8c1.3,0,2.7-0.6,3.9-1.5c1.2-1.2,2.3-2.1,3.3-3.3
	l2.9,2.5c-1.2,1.7-2.5,3.5-4.2,5.4c-1.7,1.9-3.7,3.9-6,5.6s-5,3.3-8.3,4.4c-3.3,1.2-6.7,1.7-10.6,1.7c-5,0-9.3-1.5-13.1-4.4
	c-3.9-2.9-6.4-7.5-7.5-13.7c-2.5,3.5-5,6.2-7.7,8.5c-2.7,2.3-5.4,4-8.3,5.6c-2.9,1.3-5.6,2.5-8.5,3.1c-2.9,0.6-5.8,1-8.7,1
	c-3.7,0-7.3-0.6-11-1.7s-6.7-3.1-9.4-5.6c-2.7-2.5-5-6-6.7-10c-1.7-4-2.5-9.1-2.5-15c0-7.1,1.3-13.1,4.2-17.7
	c2.9-4.6,6.6-8.5,11.2-11.6c4.6-3.1,9.8-5.8,15.6-7.9s11.8-4.6,17.9-6.9c4.6-1.7,7.9-4.4,9.8-8.1s3.1-7.3,3.1-11
	c0-5.8-1.7-10.6-5-14.1C273.8,72.3,269,70.2,263.2,70.2z M412.8,62.3c2.1,0,5.2-0.6,9.1-1.7c3.9-1.2,7.9-3.1,12-5.8
	s7.9-6.4,11.4-10.8s6-10,7.5-16.8h9.4v34.9h19.1c6.2,0,9.4-1.2,9.4-3.3c0-0.8-0.4-1.3-1.2-1.5s-1.7-0.6-2.7-1.2
	c-1-0.4-1.9-1-2.7-1.9c-0.8-0.8-1.2-2.1-1.2-3.9c0-2.1,0.8-3.9,2.1-5.2c1.3-1.3,3.1-1.9,5.4-1.9c1.3,0,2.7,0.4,3.7,1
	c1,0.6,1.9,1.3,2.7,2.3s1.2,2.1,1.5,3.5c0.4,1.3,0.6,2.5,0.6,3.9c0,5.2-1.5,9.3-4.4,12.3c-2.9,3.1-7.7,4.6-14.1,4.6h-18.1v87.5
	c0,4.2,0.8,7.1,2.3,8.7c1.5,1.5,3.7,2.5,6.4,2.5c2.1,0,4-0.6,5.6-1.7c1.7-1.2,3.1-2.5,4.2-4c1.3-1.7,2.7-3.7,3.7-5.8l3.7,1.7
	c-1.2,2.5-2.5,5.2-4.2,8.3c-1.5,3.1-3.7,5.8-6.4,8.3s-6,4.6-10,6.4c-4,1.7-9.1,2.7-15.2,2.7c-3.5,0-6.7-0.6-9.8-1.5
	c-3.1-1-6-2.7-8.5-4.8c-2.5-2.1-4.4-5-6-8.3s-2.3-7.3-2.3-12V71h-9.4h-25.6v93.3c0,10.8-1.3,20.6-4.2,29.7
	c-2.7,9.1-6.9,17-12.5,23.5c-5.6,6.6-12.7,11.8-21.2,15.4s-18.3,5.6-29.5,5.6c-4,0-7.9-0.4-11.6-1c-3.7-0.6-6.9-1.5-9.8-2.7
	c-2.9-1.2-5-2.5-6.7-4.2c-1.7-1.5-2.5-3.5-2.5-5.4c0-1.3,0.2-2.9,0.6-4.2s1-2.7,1.7-4c0.8-1.2,1.7-2.1,2.9-2.9s2.5-1.2,3.9-1.2
	c0.8,0,1.5,0.4,2.3,1.3c0.6,1,1.3,1.9,2.1,3.3s1.5,2.7,2.3,4.2c1,1.5,2.1,2.9,3.5,4.2c1.3,1.3,3.1,2.3,5.2,3.3
	c2.1,1,4.6,1.3,7.5,1.3c4,0,7.5-0.8,10.6-2.5s5.6-3.9,7.9-6.7c2.1-2.9,4-6.2,5.6-10s2.7-8.1,3.5-12.3c0.8-4.4,1.5-9.1,1.7-13.9
	c0.2-4.8,0.6-9.6,0.6-14.5V71.3h-21.6v-8.5h21.6V49c0-6.9,0.8-12.9,2.5-18.1c1.7-5.2,3.9-9.6,6.7-13.1c2.7-3.7,6-6.6,9.4-8.9
	c3.5-2.3,7.1-4,10.8-5.4c3.7-1.3,7.1-2.3,10.6-2.7s6.4-0.8,9.1-0.8c5.6,0,10.4,0.4,14.8,1.2c4.2,0.8,7.9,1.9,10.8,3.3
	c2.9,1.3,5,2.9,6.6,4.8c1.5,1.7,2.3,3.7,2.3,5.6c0,1.3-0.2,2.9-0.6,4.2c-0.4,1.5-1,2.9-1.7,4c-0.8,1.2-1.7,2.1-2.9,2.9
	s-2.3,1.2-3.9,1.2c-0.8,0-1.7-0.4-2.3-1.3c-0.8-1-1.5-2.1-2.3-3.5c-0.8-1.3-1.7-2.9-2.5-4.6c-1-1.7-2.1-3.3-3.5-4.6
	c-1.3-1.3-3.1-2.7-4.8-3.5c-1.9-1-4-1.3-6.7-1.3c-2.1,0-4.2,0.4-6.2,1.3s-3.7,2.5-5,4.6c-1.5,2.1-2.5,4.8-3.5,7.9
	c-1,3.1-1.3,7.1-1.3,11.8V63h22V62.3z"/>
</svg>
