<svg xmlns="http://www.w3.org/2000/svg" viewBox="0 0 751.28 302.33"><defs><style>.a{fill:#cc261c;}</style></defs><title>adx</title><path class="a" d="M596.2,657.68c-24.71-.06-45.32-20.78-45.19-45.44.12-24.5,20.94-44.52,46.16-44.4,24.8.12,45.44,21,45,45.49C641.75,638.4,621.69,657.74,596.2,657.68Z" transform="translate(-126.93 -355.87)"/><path d="M668,356.09c11.49,0,21.28,0,31.08,0,12.78,0,25.57.27,38.36,0,7.45-.13,10.59,3.45,12.11,10.41,5.89,26.87,12.16,53.66,18.36,80.47.46,2,1.46,3.9,3.13,8.23,3.73-12.56,7.09-22.89,9.86-33.38,4.85-18.34,9.35-36.78,14-55.19,1.85-7.31,5.44-11.1,14.1-10.75,19,.76,38.15.23,59.76.23-4.59,13.82-8.45,25.7-12.49,37.52-10.13,29.67-20.75,59.18-30.18,89.08-1.86,5.92-.57,13.7,1.52,19.86,12.82,37.7,26.29,75.18,39.54,112.73,3.27,9.25,6.13,18.67,10,27.66,3.12,7.32-.7,9.44-6.39,9.53-19.53.3-39.09.55-58.59-.27-3.64-.15-9.06-4.71-10.26-8.36-6-18.09-10.94-36.53-16.05-54.9-4.6-16.56-8.93-33.19-15.61-50.31-2.32,7.62-5,15.14-6.87,22.88-6.26,26.35-12.19,52.77-18.29,79.16-1.63,7.07-4.54,12.27-13.37,12.1-19.17-.39-38.36,0-57.54-.21-9.85-.14-10.8-2.51-7.89-11.64,10.17-32,19.93-64.07,29.93-96.09,4.71-15.06,9.72-30,14.35-45.13.87-2.85,1.53-6.36.67-9.05-10.82-33.89-22-67.67-32.94-101.51C675,379.16,672,369,668,356.09Z" transform="translate(-126.93 -355.87)"/><path d="M444.85,428.48c0-21.35.44-40.46-.19-59.53-.32-9.71,2.73-13.25,12.65-12.9,17.73.62,35.53.6,53.25-.15,10.34-.45,11.55,4.66,11.53,13-.2,60-.12,120.05-.12,180.07,0,29.84.06,59.67,0,89.51,0,12.43-1.8,14.15-14.21,14.22-18.12.1-36.23,0-54.34.06-6.9,0-12.25-1.25-10-11.45-6.65,3.79-12.15,7.26-17.93,10.14-22.17,11-49.07,8.26-64.67-6.23-12.53-11.64-15.29-27.24-15.54-42.77-.73-44.74-.52-89.5,0-134.24a97.85,97.85,0,0,1,4.83-29.26c11.45-34.5,60.46-36.33,84.11-18.68C437,422.37,439.77,424.56,444.85,428.48Zm0,104.61c0-19.83,0-39.67,0-59.5,0-7.92-1.83-14.35-11.5-14.22-9.23.13-11.84,6.13-11.84,14.14,0,39.31.05,78.63-.08,118,0,8.61,3.48,13.47,12.37,13.43s11.19-5.46,11.11-13.35C444.69,572.06,444.83,552.58,444.82,533.09Z" transform="translate(-126.93 -355.87)"/><path d="M219.22,356.09c14.56,0,29.15.46,43.68-.17,9.06-.4,13,1.72,14.2,11.83,4.32,37.31,9.82,74.48,14.91,111.7,4.11,30.08,8.11,60.17,12.47,90.21,3.38,23.39,7.19,46.73,10.9,70.08,1.64,10.31-.19,12.84-10.88,12.94-18.47.16-36.95-.2-55.42.13-8.09.15-11.72-3.24-12.22-11.09-.67-10.63-2-21.23-2.4-31.87-.24-7.22-2.93-10.46-10.3-9.63-6.78.77-15.93-3.14-16.45,9.06-.44,10.28-1.27,20.55-1.53,30.84-.23,8.75-3.92,12.88-13.07,12.71-18.47-.35-37-.08-55.42-.1-8,0-12.3-1.64-10.25-12,3.15-15.86,3.75-32.22,5.82-48.31,3.6-28,7.64-56,11.22-84,3.24-25.31,6.11-50.68,9.14-76,2.65-22.17,5.53-44.32,7.8-66.54.74-7.27,4-9.82,10.91-9.72,15.63.23,31.26.07,46.89.07ZM220.87,427l-1.64.17c-3,36.19-6,72.39-9.15,108.57-.7,8,2.38,10.65,10.25,10.47,7.2-.17,11.54-1.4,10.77-10-1.94-21.82-3.25-43.7-5.21-65.52C224.57,456.1,222.57,441.57,220.87,427Z" transform="translate(-126.93 -355.87)"/></svg>