<svg xmlns="http://www.w3.org/2000/svg" viewBox="0 0 753.66 861.17"><defs><style>.a{fill:#af2019;}.b{fill:#e74a12;}.c{fill:#e2a00a;}.d{fill:#e4122d;}.e{fill:#922d2b;}.f{fill:#f8e8d6;}.g{fill:#f5b7a5;}</style></defs><title>energy_challenge</title><path class="a" d="M695.09,256.09c9.47-52.16,18.93-104.31,28.63-157.75l95.92,18.23c16,3,32,6.26,48,9,5.91,1,8.43,3.21,8.49,9.68q1.15,133,2.75,265.94a46.29,46.29,0,0,1-.61,5.29L744.14,413.6c.4-8.32,0-16.78,1.42-24.92,1.33-7.46,2.9-16,7.43-21.6,33.36-41.13,69.26-80.36,94.7-127.34,4.5-8.3,7.21-17.58,10-24.47L835.1,197.53c-3.4,11.55-15.13,20.22-2.22,32.83-44.54,43.88-77.66,98.08-133.83,129.92-.82-3.72-4.38-10.81-2.5-12.82,10.27-11,6.4-24,5.44-35.72-.67-8.14-6.91-15.84-10.66-23.73l-1.2-4.3c.28-2.46.55-4.92.83-7.38Q693,266.21,695.09,256.09Z" transform="translate(-125.23 -69.65)"/><path class="b" d="M341.67,270.94V167.58H503.05c4.17,37.21,8.16,72.83,12.15,108.45q.75,6.9,1.49,13.82,1.6,10.63,3.22,21.28.92,13.19,1.84,26.39c-3.15-3.56-9-7.17-9-10.68.22-13.94-9.23-16.81-18.17-20.09l-14.5,21.83c9.81,19.37,28.08,26.64,44.76,36q2.58,21.21,5.17,42.44c2.28,21.07,4.55,42.15,7.05,65.21l-138,10c.57-28,1.74-56,1.32-83.93-.12-8,2.41-11.38,8.36-15.79,25.41-18.85,51.61-37.3,66.55-66.49,5.85-11.43,9.46-24,14.54-35.86,3.59-8.36,6.86-17.19,12.19-24.39,9.72-13.09,8.5-21.4-6.42-29.53-6.87,4.8-11.66,10.21-9.18,19.81.82,3.18-.43,7.84-2.39,10.65-20.19,28.91-32.56,63.07-65.42,83.36-14.51,9-28.5,12.35-43.82,14.4-11.16,1.5-21.54-10.8-16-18.82,9.21-13.4,5.35-27.33,4.53-41.13-.39-6.62-1.88-14.31-5.77-19.21C354.76,271.86,347.13,272.26,341.67,270.94Z" transform="translate(-125.23 -69.65)"/><path class="c" d="M255.93,485l-48.55,21.91c-1.32-3-2.71-5.35-3.48-7.92Q165.4,370.16,127,241.27c-1.65-5.55-4.2-10.46,3.56-14.55,58.64-30.93,117.07-62.26,177.62-94.56,6.19,36.35,12.16,71.38,18.12,106.41-24.32,12-35.05,41.53-8.92,62.71,1.62,1.32,3.64,2.54,4.52,4.28,1.75,3.48,4.68,8,3.67,10.79-.93,2.58-6.4,4.95-9.89,5-15.46.09-31.92,3.59-43.66-11.61-2.3-3-7.49-3.58-10.91-5.91s-7.11-4.78-8.88-8.15c-8.38-15.84-16.61-31.8-23.85-48.18-2.47-5.6-3.68-13-2.26-18.78,2.26-9.2-.11-14.1-8.15-17.15-16.33,11.34-22.38,14-9.34,35.34,3.09,5.07,3,12,4.91,17.88,5.45,17.34,6.9,38.17,17.74,51,14.53,17.24,30.81,35.45,54,43.53,2.89,1,6.43,3.41,7.43,6,5.65,14.67,10.94,29.5,15.55,44.53,1,3.28-.92,10.75-2.05,10.86a44.27,44.27,0,0,1-18-1.5c-1.9-.62-2.25-6.78-2.79-10.49-1.56-10.55-2.44-21.22-4.63-31.63-.42-2-5.85-4.71-8.44-4.23-10.28,1.89-19.05,6.84-22.64,17.46-3.66,10.84.5,19.41,8.81,26.59,2,1.73,4,4.32,4.37,6.75.18,1.31-2.93,3.93-5,4.56-8.3,2.55-37.59-8.15-41-16.47-6.28-15.17-10.67-31.11-15.95-46.7-.88-2.59-2.15-7-3.52-7.08-2.89-.23-7.34,1-8.63,3.12a17.84,17.84,0,0,0-2.06,11.5c1.52,8.51,5,16.7,6.25,25.22,2,14.27,7.13,26.69,18.57,35.67C229.69,447.8,247.38,462.42,255.93,485Z" transform="translate(-125.23 -69.65)"/><path class="d" d="M517.13,276.13c2.43-38.71,4.71-77.43,7.53-116.12.31-4.15,2.71-10.36,5.87-11.77C589,122,647.76,96.28,708.34,69.65c-2,23.38-3.72,45.15-5.67,66.9q-4.89,54.87-10,109.72a52.42,52.42,0,0,1-1.7,7.19c-3.73.33-7.75-.15-11.13,1.11-23.72,8.82-34.2,40.06-21.93,62.5,3.07,5.61,4.42,12.69,4.66,19.17.26,7.15-3.46,9.55-10.7,5.5a101.14,101.14,0,0,0-20.44-8.36c-6.3-1.88-13.72-1-19.39-3.8-15.22-7.62-29.67-16.77-44.62-24.95-16.39-9-33-17.53-49.51-26.27A8.06,8.06,0,0,0,517.13,276.13Z" transform="translate(-125.23 -69.65)"/><path class="b" d="M255.93,485c-8.55-22.6-26.24-37.22-44.46-51.52-11.44-9-16.55-21.4-18.57-35.67-1.21-8.52-4.73-16.71-6.25-25.22a17.84,17.84,0,0,1,2.06-11.5c1.29-2.14,5.74-3.35,8.63-3.12,1.37.11,2.64,4.49,3.52,7.08,5.28,15.59,9.67,31.53,15.95,46.7,3.44,8.32,32.73,19,41,16.47,2.06-.63,5.17-3.25,5-4.56-.34-2.43-2.37-5-4.37-6.75-8.31-7.18-12.47-15.75-8.81-26.59,3.59-10.62,12.36-15.57,22.64-17.46,2.59-.48,8,2.22,8.44,4.23,2.19,10.41,3.07,21.08,4.63,31.63.54,3.71.89,9.87,2.79,10.49a44.27,44.27,0,0,0,18,1.5c1.13-.11,3.06-7.58,2.05-10.86-4.61-15-9.9-29.86-15.55-44.53-1-2.61-4.54-5-7.43-6-23.16-8.08-39.44-26.29-54-43.53-10.84-12.86-12.29-33.69-17.74-51-1.86-5.91-1.82-12.81-4.91-17.88-13-21.39-7-24,9.34-35.34,8,3.05,10.41,8,8.15,17.15-1.42,5.78-.21,13.18,2.26,18.78,7.24,16.38,15.47,32.34,23.85,48.18,1.77,3.37,5.57,5.89,8.88,8.15s8.61,2.93,10.91,5.91c11.74,15.2,28.2,11.7,43.66,11.61,3.49,0,9-2.39,9.89-5,1-2.83-1.92-7.31-3.67-10.79-.88-1.74-2.9-3-4.52-4.28-26.13-21.18-15.4-50.72,8.92-62.71q5.07,54.06,10.13,108.12c1.08,11.6,2.09,23.21,3.14,34.81.25,4.51.82,9,.68,13.51-.59,18.81-1.4,37.6-2.13,56.4Z" transform="translate(-125.23 -69.65)"/><path class="e" d="M394,750.4l-34.56,5q-15.66-48.31-31.3-96.6l-2.69.36V760.07l-35.54,5c-.27-3.87-.69-7.12-.69-10.37,0-58.16.16-116.32-.22-174.48-.06-8.9,2-12.18,11.47-13.09,26.49-2.54,26.46-3.1,34.61,22.79,7.48,23.8,14.9,47.62,23.59,71.33v-102L394,554.25Z" transform="translate(-125.23 -69.65)"/><path class="e" d="M640.27,715.65C629,717.42,619.56,719.57,610,720c-3.21.15-8.21-3.26-9.68-6.33-9.17-19.19-17.72-38.68-26.16-58.2-2.7-6.26-6-9.89-14.35-6.2v77.77L525.13,732V535.54c21.77-2.8,43.52-6.53,65.43-8.15,20.31-1.51,34.66,9.64,39.41,29.51,6.85,28.73,2.17,55-20.54,75.73-4.73,4.33-4.74,7.38-2.15,12.73C618.37,668.26,629,691.41,640.27,715.65ZM560,618.42c8.57-1.66,16.57-1.7,23-4.9,5.67-2.81,12.4-8.52,13.65-14.08,2.23-9.86,1.88-20.79.11-30.84-.8-4.58-7.2-10.94-11.7-11.52-8.15-1.05-16.79,1.63-25.06,2.72Z" transform="translate(-125.23 -69.65)"/><path class="e" d="M754.79,560.82l-34.5,4.9c-.36-4.38-.9-7.91-.9-11.43,0-8.14-1.58-15.5-11-17s-16.41,2.82-20.14,11.38a31.44,31.44,0,0,0-2.11,12.14c-.15,33.44,0,66.89-.14,100.33,0,9.05,1.44,16.92,11.73,19.38,9.17,2.19,20.61-3.22,22.65-13.24,2.77-13.63,2.72-27.85,3.92-42.2h-20V597.93l49.42-7.16c0,25.34,2.86,50.27-.67,74.26-5.29,36-49.18,56.36-82.19,41-13.66-6.36-20.05-17.68-20.21-32-.41-38.45-1.12-77,.17-115.36,1.32-39.42,54.8-65.83,87.92-44.25C755.5,525.31,756.86,542,754.79,560.82Z" transform="translate(-125.23 -69.65)"/><path class="f" d="M338.11,451.41c.73-18.8,1.54-37.59,2.13-56.4.14-4.49-.43-9-.68-13.51.65-4.4,1.85-8.79,1.87-13.2.22-32.45.19-64.91.24-97.36,5.46,1.32,13.09.92,15.85,4.39,3.89,4.9,5.38,12.59,5.77,19.21.82,13.8,4.68,27.73-4.53,41.13-5.51,8,4.87,20.32,16,18.82,15.32-2.05,29.31-5.44,43.82-14.4,32.86-20.29,45.23-54.45,65.42-83.36,2-2.81,3.21-7.47,2.39-10.65-2.48-9.6,2.31-15,9.18-19.81,14.92,8.13,16.14,16.44,6.42,29.53-5.33,7.2-8.6,16-12.19,24.39-5.08,11.86-8.69,24.43-14.54,35.86-14.94,29.19-41.14,47.64-66.55,66.49-5.95,4.41-8.48,7.78-8.36,15.79.42,28-.75,55.95-1.32,83.93-15.92,1.62-31.81,3.67-47.77,4.74-12.24.81-13.14-1.49-11.76-13.47C340.37,466.31,338.67,458.79,338.11,451.41Z" transform="translate(-125.23 -69.65)"/><path class="g" d="M691.33,288c3.75,7.89,10,15.59,10.66,23.73,1,11.75,4.83,24.75-5.44,35.72-1.88,2,1.68,9.1,2.5,12.82,56.17-31.84,89.29-86,133.83-129.92-12.91-12.61-1.18-21.28,2.22-32.83l22.56,17.74c-2.76,6.89-5.47,16.17-10,24.47-25.44,47-61.34,86.21-94.7,127.34-4.53,5.59-6.1,14.14-7.43,21.6-1.45,8.14-1,16.6-1.42,24.92L659,418.67l4-33.58c1.71-3.64,4.08-7.12,5-10.95,5.11-20.87,9.87-41.82,14.75-62.75Z" transform="translate(-125.23 -69.65)"/><path class="e" d="M256.68,677.86l-34.5,5.49V745.7l52.14-6.85v28.53l-87.14,12.14V583.32l83.17-11.82v28.67c-12.92,1.77-26,3.8-39.21,5.27-6.93.78-10.34,3.1-9.89,10.92.68,12,.18,24.1.18,37.61l35.25-4.12Z" transform="translate(-125.23 -69.65)"/><path class="e" d="M491.77,616.83v28l-34.43,5.58v62.45l51.86-7.13v28.68l-87.14,12.14V550.28c14-1.94,28-3.86,41.88-5.8l41.5-5.82V567c-13.09,1.86-26.14,4.18-39.29,5.4-7.47.7-10,3.51-9.64,11,.55,12,.15,24.08.15,37.45Z" transform="translate(-125.23 -69.65)"/><path class="e" d="M820.73,583.61c6.23-27.23,12.68-54.4,18.58-81.7C841,494,844,489.46,853,489.45c7.37,0,14.74-1.77,24.19-3-6.8,21.17-13,40.73-19.36,60.26-1.93,6-3.69,12-6.1,17.75C838.09,597,833.68,631,836.19,666c.5,7,.07,14.14.07,22.16l-34.79,5.14c0-22.25.39-43.48-.19-64.69a82.84,82.84,0,0,0-4.22-24.3c-11.52-33.49-23.69-66.76-36.09-101.38l34.58-5.4q11.52,43.4,22.94,86.46Z" transform="translate(-125.23 -69.65)"/><path class="e" d="M682.83,311.39c-4.88,20.93-9.64,41.88-14.75,62.75-.94,3.83-3.31,7.31-5,10.95l-42.53,6.35c-.6-9.26-6-14.63-13.7-19.31-9.45-5.77-19.19-11.83-26.79-19.7-17.34-18-38.74-29.52-60.13-41.3q-1.62-10.65-3.22-21.28l1.2-11.49c16.51,8.74,33.12,17.3,49.51,26.27,15,8.18,29.4,17.33,44.62,24.95,5.67,2.83,13.09,1.92,19.39,3.8a101.14,101.14,0,0,1,20.44,8.36c7.24,4.05,11,1.65,10.7-5.5-.24-6.48-1.59-13.56-4.66-19.17-12.27-22.44-1.79-53.68,21.93-62.5,3.38-1.26,7.4-.78,11.13-1.11.27.85.55,1.7.83,2.55l-3.36,20.26c-.27,2.46-.53,4.93-.8,7.39Q685.22,297.52,682.83,311.39Z" transform="translate(-125.23 -69.65)"/><path class="b" d="M643.44,869V736.87L668,733.35c6.74,21.14,13.37,41.93,20,62.72l2.17-.33V750.42c0-21.42,0-21.42,22.33-22.57V858.14a24.07,24.07,0,0,1-3.62,1.32c-18.51,4.19-18.53,4.18-24.3-13.46-5-15.29-10-30.58-17.26-45.63v64.68Z" transform="translate(-125.23 -69.65)"/><path class="b" d="M271.67,789.29l22.56-3.54v50.62l24.69-3.23V782.73l23-3.69V911l-22.49,3.58V852.92l-25.21,3.5c0,16.19-.85,31.65.27,47,.85,11.64-2.44,17.24-14.54,16.51-2.42-.14-4.91.7-8.29,1.22Z" transform="translate(-125.23 -69.65)"/><path class="b" d="M799.82,753.39l-22.18,3.18c-.56-2.61-1.2-4.15-1.18-5.69.09-6.81-1-13.5-9.45-13.19s-12.29,5.95-12.26,14.41q.12,34.46,0,68.93c0,6.27.94,13.48,8.56,12.12,5.4-1,12.68-6,14.19-10.75,2.39-7.55.64-16.41.64-25.39H766.79V778.12l32.68-4.76c0,17.54,2.17,34.75-.52,51.16-3.67,22.41-30.32,35.21-52,27.62-10.2-3.58-16.19-10.54-16.32-21.29-.34-26.73-1-53.5.06-80.2,1-26,38-43.2,59.35-28.33C800.71,729.74,802,740.56,799.82,753.39Z" transform="translate(-125.23 -69.65)"/><path class="b" d="M430.33,898.53l-23.6,3.66c-1.91-9.83-3.68-19-5.69-29.4l-21.11,2.47c-1,5.24-2.09,9.7-2.76,14.21-2.9,19.45-2.86,19.45-24.86,18.95,8.92-44.89,17.79-89.55,26.68-134.32l24.14-3.53C412.19,813.17,421.09,855.07,430.33,898.53Zm-32.55-45.36L391.4,813l-1.83.07c-2,13.64-3.95,27.27-6.06,41.92Z" transform="translate(-125.23 -69.65)"/><path class="b" d="M232.69,834.35c-1-3-1.52-3.78-1.52-4.55,0-7.27.19-15.93-9.69-15.57-9.51.35-12.69,8.06-12.66,17,.08,20.89,0,41.78.05,62.67,0,7.2-.35,15.6,9.56,16,10.52.43,12.83-7.29,12.64-16.2a52.3,52.3,0,0,1,.56-5.73l22-3.15c4.14,15.17-1.23,29.57-14,38-14.2,9.47-36.32,11-45.72,1.29a34.85,34.85,0,0,1-9.07-20.83c-1.09-24.18-1.17-48.48-.16-72.67,1-24.75,25.56-41.83,49.76-36,13.95,3.36,22.61,14.07,21,28.41C253.85,838.31,239.79,828.18,232.69,834.35Z" transform="translate(-125.23 -69.65)"/><path class="b" d="M873.22,704.65c2.07,19.11,2.06,19.05-15.2,21.36-5.3.71-10.54,1.84-16.17,2.83v30.6l22.55-2.2v18.62l-22.24,3.94v41.36l33.9-4.28V836l-58.79,8.48V824.8c0-34.3.17-68.59-.14-102.88-.07-7.24,1.92-10.47,9.53-11.21C842,709.22,857.22,706.79,873.22,704.65Z" transform="translate(-125.23 -69.65)"/><path class="b" d="M570.76,746.94l55.81-7.69v19.14c-6.91,1-14.16,2.31-21.48,3-7.79.7-12.32,3.33-11.19,12.34.76,6.1.15,12.39.15,20.29l22.6-2v18.69l-21.72,3.91V856l34.32-4.41v19.19l-58.49,8.43Z" transform="translate(-125.23 -69.65)"/><path class="d" d="M519.91,311.13c21.39,11.78,42.79,23.32,60.13,41.3,7.6,7.87,17.34,13.93,26.79,19.7,7.66,4.68,13.1,10.05,13.7,19.31L530.05,407q-2.58-21.22-5.17-42.44-1.56-13.53-3.13-27.06Q520.84,324.32,519.91,311.13Z" transform="translate(-125.23 -69.65)"/><path class="b" d="M529.71,864.94l30-3.52v19.1l-53.59,7.65V756.45l23.61-3.79Z" transform="translate(-125.23 -69.65)"/><path class="b" d="M440.18,765.34l23.14-2.75V874.08l30.79-3.21v19l-53.93,7.52Z" transform="translate(-125.23 -69.65)"/><path class="f" d="M688.42,276.27,691.78,256l3.31.08Q693,266.2,691,276.33Z" transform="translate(-125.23 -69.65)"/><path class="g" d="M517.89,278.36l-1.2,11.49q-.75-6.92-1.49-13.82l1.93.1A8.06,8.06,0,0,1,517.89,278.36Z" transform="translate(-125.23 -69.65)"/><path class="f" d="M682.83,311.39q2.4-13.86,4.79-27.73c.84,0,1.67,0,2.51,0l1.2,4.3Z" transform="translate(-125.23 -69.65)"/><path class="f" d="M521.75,337.52q1.56,13.53,3.13,27.06c-16.68-9.36-34.95-16.63-44.76-36l14.5-21.83c8.94,3.28,18.39,6.15,18.17,20.09C512.73,330.35,518.6,334,521.75,337.52Z" transform="translate(-125.23 -69.65)"/><path class="f" d="M397.78,853.17,383.51,855c2.11-14.65,4.08-28.28,6.06-41.92l1.83-.07Z" transform="translate(-125.23 -69.65)"/></svg>