<?xml version="1.0" encoding="UTF-8" standalone="no"?>
<!-- Created with Inkscape (http://www.inkscape.org/) -->
<svg xmlns:dc="http://purl.org/dc/elements/1.1/" xmlns:cc="http://creativecommons.org/ns#" xmlns:rdf="http://www.w3.org/1999/02/22-rdf-syntax-ns#" xmlns:svg="http://www.w3.org/2000/svg" xmlns="http://www.w3.org/2000/svg" xmlns:sodipodi="http://sodipodi.sourceforge.net/DTD/sodipodi-0.dtd" xmlns:inkscape="http://www.inkscape.org/namespaces/inkscape" id="svg2" version="1.1" inkscape:version="0.48.1 r9760" width="561.21478" height="207.73022" xml:space="preserve" sodipodi:docname="risikokapital_unfall_2011e.pdf"><metadata id="metadata8"><rdf:RDF><cc:Work rdf:about=""><dc:format>image/svg+xml</dc:format><dc:type rdf:resource="http://purl.org/dc/dcmitype/StillImage"/><dc:title/></cc:Work></rdf:RDF></metadata><defs id="defs6"><clipPath clipPathUnits="userSpaceOnUse" id="clipPath16"><path d="m 0,817.229 595.275,0 0,444.189 -595.275,0 0,-444.189 z" id="path18" inkscape:connector-curvature="0"/></clipPath><clipPath clipPathUnits="userSpaceOnUse" id="clipPath54"><path d="m 0,0 595.276,0 0,1261.417 L 0,1261.417 0,0 z" id="path56" inkscape:connector-curvature="0"/></clipPath><clipPath clipPathUnits="userSpaceOnUse" id="clipPath106"><path d="m 0,0 595.276,0 0,1261.417 L 0,1261.417 0,0 z" id="path108" inkscape:connector-curvature="0"/></clipPath><clipPath clipPathUnits="userSpaceOnUse" id="clipPath156"><path d="m 0,0 595.276,0 0,1261.417 L 0,1261.417 0,0 z" id="path158" inkscape:connector-curvature="0"/></clipPath><clipPath clipPathUnits="userSpaceOnUse" id="clipPath194"><path d="m 0,0 595.276,0 0,1261.417 L 0,1261.417 0,0 z" id="path196" inkscape:connector-curvature="0"/></clipPath><clipPath clipPathUnits="userSpaceOnUse" id="clipPath208"><path d="m 0,0 595.276,0 0,1261.417 L 0,1261.417 0,0 z" id="path210" inkscape:connector-curvature="0"/></clipPath><clipPath clipPathUnits="userSpaceOnUse" id="clipPath222"><path d="m 0,0 595.276,0 0,1261.417 L 0,1261.417 0,0 z" id="path224" inkscape:connector-curvature="0"/></clipPath><clipPath clipPathUnits="userSpaceOnUse" id="clipPath238"><path d="m 0,0 595.276,0 0,1261.417 L 0,1261.417 0,0 z" id="path240" inkscape:connector-curvature="0"/></clipPath><clipPath clipPathUnits="userSpaceOnUse" id="clipPath252"><path d="m 0,0 595.276,0 0,1261.417 L 0,1261.417 0,0 z" id="path254" inkscape:connector-curvature="0"/></clipPath><clipPath clipPathUnits="userSpaceOnUse" id="clipPath276"><path d="m 0,0 595.276,0 0,1261.417 L 0,1261.417 0,0 z" id="path278" inkscape:connector-curvature="0"/></clipPath><clipPath clipPathUnits="userSpaceOnUse" id="clipPath292"><path d="m 0,0 595.276,0 0,1261.417 L 0,1261.417 0,0 z" id="path294" inkscape:connector-curvature="0"/></clipPath><clipPath clipPathUnits="userSpaceOnUse" id="clipPath306"><path d="m 0,0 595.276,0 0,1261.417 L 0,1261.417 0,0 z" id="path308" inkscape:connector-curvature="0"/></clipPath><clipPath clipPathUnits="userSpaceOnUse" id="clipPath320"><path d="m 0,0 595.276,0 0,1261.417 L 0,1261.417 0,0 z" id="path322" inkscape:connector-curvature="0"/></clipPath><clipPath clipPathUnits="userSpaceOnUse" id="clipPath334"><path d="m 0,0 595.276,0 0,1261.417 L 0,1261.417 0,0 z" id="path336" inkscape:connector-curvature="0"/></clipPath><clipPath clipPathUnits="userSpaceOnUse" id="clipPath350"><path d="m 0,0 595.276,0 0,1261.417 L 0,1261.417 0,0 z" id="path352" inkscape:connector-curvature="0"/></clipPath><clipPath clipPathUnits="userSpaceOnUse" id="clipPath370"><path d="m 0,0 595.276,0 0,1261.417 L 0,1261.417 0,0 z" id="path372" inkscape:connector-curvature="0"/></clipPath><clipPath clipPathUnits="userSpaceOnUse" id="clipPath384"><path d="m 0,0 595.276,0 0,1261.417 L 0,1261.417 0,0 z" id="path386" inkscape:connector-curvature="0"/></clipPath><clipPath clipPathUnits="userSpaceOnUse" id="clipPath408"><path d="m 0,1174.14 101.136,0 0,44.758 -101.136,0 0,-44.758 z" id="path410" inkscape:connector-curvature="0"/></clipPath><clipPath clipPathUnits="userSpaceOnUse" id="clipPath448"><path d="m 0,0 595.276,0 0,1261.417 L 0,1261.417 0,0 z" id="path450" inkscape:connector-curvature="0"/></clipPath></defs><sodipodi:namedview pagecolor="#ffffff" bordercolor="#666666" borderopacity="1" objecttolerance="10" gridtolerance="10" guidetolerance="10" inkscape:pageopacity="0" inkscape:pageshadow="2" inkscape:window-width="1075" inkscape:window-height="683" id="namedview4" showgrid="false" fit-margin-top="0" fit-margin-left="0" fit-margin-right="0" fit-margin-bottom="0" inkscape:zoom="0.16616194" inkscape:cx="313.36144" inkscape:cy="-491.7973" inkscape:window-x="0" inkscape:window-y="0" inkscape:window-maximized="0" inkscape:current-layer="g10"/><g id="g10" inkscape:groupmode="layer" inkscape:label="risikokapital_unfall_2011e" transform="matrix(1.25,0,0,-1.25,-58.686048,1487.915)"><g id="g404" transform="matrix(5.3796609,0,0,5.3796609,0,-5338.3599)"><g id="g406" clip-path="url(#clipPath408)"><g id="g412" transform="translate(48.265,1186.3652)"><path d="m 0,0 c 0.02,-0.696 0.28,-2.197 2.66,-2.558 0.675,-0.102 0.511,-0.306 0.511,-0.409 0,-0.184 -0.041,-0.307 -0.573,-0.307 l -10.434,0 c -0.857,-0.023 -1.022,-0.106 -1.022,0.307 0,0.214 0.266,0.328 0.634,0.409 0.368,0.082 2.148,0.43 2.23,2.558 0.082,2.127 0.061,18.965 0.02,19.476 -0.041,0.511 0.266,2.996 -2.189,3.294 -0.675,0.081 -0.675,0.163 -0.675,0.429 0,0.348 0.259,0.396 0.982,0.382 l 10.209,0 c 0.511,0.009 0.767,0 0.767,-0.423 C 3.12,22.912 2.884,22.831 2.373,22.77 1.987,22.723 0.041,22.865 0.041,19.476 L 0,0 z" style="fill:#e0332b;fill-opacity:1;fill-rule:evenodd;stroke:none" id="path414" inkscape:connector-curvature="0"/></g><g id="g416" transform="translate(49.9723,1199.2905)"><path d="M 0,0 5.822,7.151 C 5.963,7.376 7.397,9.544 4.287,9.708 3.96,9.725 3.591,9.626 3.591,10.138 c 0,0.382 0.307,0.391 0.675,0.382 2.943,-0.073 5.862,-0.073 8.347,0 0.596,0.017 0.614,-0.157 0.614,-0.403 0,-0.245 -0.171,-0.251 -0.614,-0.368 C 11.529,9.462 9.77,9.422 6.374,5.473 L 3.203,1.552 c 0,0 3.027,-5.189 8.919,-14.968 0.9,-1.493 1.064,-1.822 2.169,-1.985 0.506,-0.075 0.676,-0.184 0.672,-0.451 -0.004,-0.347 -0.281,-0.423 -0.57,-0.408 l -11.15,0 c -0.224,-0.02 -0.531,-0.062 -0.531,0.368 0,0.246 0.164,0.286 0.716,0.388 0.552,0.103 2.926,0.062 1.718,2.088 C 4.178,-11.791 1.284,-6.777 0,-4.65 L 0,0 z" style="fill:#e0332b;fill-opacity:1;fill-rule:evenodd;stroke:none" id="path418" inkscape:connector-curvature="0"/></g><g id="g420" transform="translate(31.5743,1210.9736)"><path d="m 0,0 c 0,1.441 1.168,2.61 2.609,2.61 1.442,0 2.61,-1.169 2.61,-2.61 0,-1.441 -1.168,-2.61 -2.61,-2.61 C 1.168,-2.61 0,-1.441 0,0" style="fill:#8f2f26;fill-opacity:1;fill-rule:evenodd;stroke:none" id="path422" inkscape:connector-curvature="0"/></g><g id="g424" transform="translate(11.3371,1208.369)"><path d="M 0,0 C 1.441,0 2.609,1.168 2.609,2.61 2.609,3.61 1.882,5.219 0,5.219 -1.441,5.219 -2.61,4.051 -2.61,2.61 -2.61,1.168 -1.441,0 0,0" style="fill:#e0332b;fill-opacity:1;fill-rule:evenodd;stroke:none" id="path426" inkscape:connector-curvature="0"/></g><g id="g428" transform="translate(21.6675,1209.0138)"><path d="m 0,0 0,1.391 c -8.101,-0.454 -12.816,-6.115 -12.816,-13.911 0,-7.706 5.238,-13.224 12.816,-13.797 l 0,1.454 c -3.729,0.769 -6.034,5.807 -6.034,12.398 C -6.034,-4.363 -3.275,-0.62 0,0" style="fill:#e0332b;fill-opacity:1;fill-rule:evenodd;stroke:none" id="path430" inkscape:connector-curvature="0"/></g><g id="g432" transform="translate(75.5143,1186.3652)"><path d="m 0,0 c 0.02,-0.696 0.28,-2.197 2.66,-2.558 0.674,-0.102 0.511,-0.306 0.511,-0.409 0,-0.184 -0.041,-0.307 -0.573,-0.307 l -10.434,0 c -0.857,-0.023 -1.023,-0.106 -1.023,0.307 0,0.214 0.266,0.328 0.635,0.409 0.368,0.082 2.148,0.43 2.229,2.558 0.082,2.127 0.062,18.965 0.021,19.476 -0.041,0.511 0.266,2.996 -2.189,3.294 -0.675,0.081 -0.675,0.163 -0.675,0.429 0,0.348 0.258,0.396 0.982,0.382 l 10.208,0 c 0.512,0.009 0.768,0 0.768,-0.423 C 3.12,22.912 2.884,22.831 2.373,22.77 1.986,22.723 0.041,22.865 0.041,19.476 L 0,0 z" style="fill:#e0332b;fill-opacity:1;fill-rule:evenodd;stroke:none" id="path434" inkscape:connector-curvature="0"/></g><g id="g436" transform="translate(77.2213,1199.2905)"><path d="M 0,0 5.822,7.15 C 5.963,7.376 7.397,9.544 4.287,9.708 3.961,9.725 3.592,9.626 3.592,10.138 c 0,0.382 0.306,0.391 0.675,0.382 2.942,-0.073 5.861,-0.073 8.346,0 0.596,0.017 0.614,-0.157 0.614,-0.403 0,-0.245 -0.171,-0.251 -0.614,-0.368 C 11.529,9.462 9.77,9.422 6.374,5.473 L 3.203,1.552 c 0,0 3.027,-5.189 8.919,-14.968 0.9,-1.493 1.064,-1.822 2.169,-1.985 0.506,-0.075 0.676,-0.184 0.672,-0.451 -0.004,-0.347 -0.281,-0.423 -0.57,-0.408 l -11.149,0 c -0.225,-0.02 -0.532,-0.062 -0.532,0.368 0,0.246 0.164,0.286 0.716,0.388 0.552,0.103 2.926,0.062 1.718,2.088 C 4.178,-11.791 1.284,-6.777 0,-4.65 L 0,0 z" style="fill:#e0332b;fill-opacity:1;fill-rule:evenodd;stroke:none" id="path438" inkscape:connector-curvature="0"/></g><g id="g440" transform="translate(24.0417,1210.4106)"><path d="M 0,0 C 7.578,-0.573 12.816,-6.092 12.816,-13.797 12.816,-21.593 8.101,-27.254 0,-27.708 l 0,1.391 c 3.275,0.62 6.034,4.363 6.034,12.465 0,6.591 -2.305,11.629 -6.034,12.397 L 0,0 z" style="fill:#8f2f26;fill-opacity:1;fill-rule:evenodd;stroke:none" id="path442" inkscape:connector-curvature="0"/></g></g></g></g></svg>