<svg height="496pt" viewBox="0 0 496 496" width="496pt" xmlns="http://www.w3.org/2000/svg"><path d="m288 440h-80v-112l40-24 40 24zm0 0" fill="#f0bc5e"/><path d="m216 280v-26.207031c-10.214844-7.160157-18-17.554688-21.648438-29.792969h-2.351562c-18.710938 0-33.671875-16.054688-31.847656-35.144531 1.582031-16.640625 16.511718-28.855469 33.222656-28.855469h29.847656c6.585938-4.023438 12.371094-9.382812 16.777344-16l-10.664062 16h25.886718c6.585938-4.023438 12.371094-9.382812 16.777344-16l-10.664062 16h25.886718c6.585938-4.023438 12.371094-9.382812 16.777344-16v16.128906c16.144531.65625 30.304688 12.558594 31.847656 28.726563 1.824219 19.089843-13.136718 35.144531-31.847656 35.144531h-2.351562c-3.648438 12.238281-11.433594 22.632812-21.648438 29.792969v26.207031l64 14.769531v-150.769531c0-52.9375-43.0625-96-96-96s-96 43.0625-96 96v150.769531zm0 0" fill="#f0bc5e"/><path d="m147.40625 287.617188c-25.558594 5.902343-43.40625 28.34375-43.40625 54.566406v105.816406h288v-105.816406c0-26.222656-17.847656-48.664063-43.40625-54.566406l-60.59375-13.976563v-15.761719c8.550781-6.871094 15.289062-15.894531 19.425781-26.238281 9.972657-.871094 19.390625-5.273437 26.183594-12.738281 7.558594-8.316406 11.285156-19.542969 10.207031-30.804688-1.632812-17.160156-14.929687-31.050781-31.816406-34.921875v-17.175781h-16v5.328125c-6.457031 8.742187-15.65625 14.847656-26.023438 17.359375 3.199219-3.078125 6.152344-6.464844 8.679688-10.246094l-13.3125-8.875c-6.480469 9.722656-16.289062 16.449219-27.367188 19.128906 3.199219-3.078124 6.152344-6.464843 8.679688-10.246093l-13.3125-8.875c-7.625 11.441406-19.855469 18.714843-33.34375 20.136719v-23.710938h-16v17.175781c-16.886719 3.871094-30.175781 17.769531-31.816406 34.921875-1.070313 11.253906 2.648437 22.488282 10.207031 30.804688 6.785156 7.464844 16.210937 11.867187 26.183594 12.738281 4.128906 10.34375 10.867187 19.367187 19.425781 26.238281v15.761719zm66.769531 1.015624 19.503907 14.632813-19.71875 11.832031-4.242188-25.433594zm67.648438 0 5.632812 1.296876-5.074219 25.367187-20.0625-12.039063zm-161.824219 53.550782c0-18.734375 12.753906-34.757813 31.007812-38.976563l43.097657-9.941406 7.933593 47.636719 37.960938-22.773438v113.871094h-64.351562c-.792969-8.246094-3.480469-16.167969-8.113282-23.128906-4.925781-7.382813-7.535156-15.992188-7.535156-24.871094s2.609375-17.488281 7.527344-24.871094l8.472656-12.703125v-18.425781h-16v13.574219l-5.785156 8.671875c-6.679688 10.035156-10.214844 21.707031-10.214844 33.753906s3.535156 23.71875 10.214844 33.753906c2.882812 4.316406 4.707031 9.175782 5.425781 14.246094h-39.640625zm256 0v89.816406h-39.648438c.71875-5.078125 2.550782-9.9375 5.425782-14.246094 6.6875-10.035156 10.222656-21.707031 10.222656-33.753906s-3.535156-23.71875-10.214844-33.753906l-5.785156-8.671875v-13.574219h-16v18.425781l8.472656 12.703125c4.917969 7.382813 7.527344 15.992188 7.527344 24.871094s-2.609375 17.488281-7.527344 24.871094c-4.632812 6.953125-7.320312 14.882812-8.113281 23.128906h-64.359375v-113.871094l37.617188 22.566406 9.429687-47.167968 41.945313 9.679687c18.253906 4.21875 31.007812 20.242188 31.007812 38.976563zm-48.121094-152.566406c.65625 6.878906-1.511718 13.460937-6.117187 18.527343-2.769531 3.039063-6.289063 5.167969-10.105469 6.464844.222656-2.175781.34375-4.378906.34375-6.609375v-38.28125c8.609375 3.265625 15.015625 10.839844 15.878906 19.898438zm-153.640625 18.527343c-4.605469-5.066406-6.773437-11.648437-6.117187-18.527343.863281-9.050782 7.269531-16.632813 15.878906-19.890626v38.273438c0 2.230469.121094 4.433594.34375 6.609375-3.824219-1.296875-7.34375-3.425781-10.105469-6.464844zm25.761719-.144531v-32.296875c8.488281-.664063 16.640625-2.960937 24-6.839844v7.136719h3.160156c10.230469 0 20.085938-2.527344 28.839844-7.144531v7.144531h3.160156c13.503906 0 26.328125-4.433594 36.839844-12.238281v44.238281c0 26.472656-21.527344 48-48 48s-48-21.527344-48-48zm48 64c8.488281 0 16.585938-1.695312 24-4.710938v8.710938l-24 18-24-18v-8.710938c7.414062 3.015626 15.511719 4.710938 24 4.710938zm0 0"/><path d="m272 352h16v16h-16zm0 0"/><path d="m208 352h16v16h-16zm0 0"/><path d="m48 16h72v-16h-88v88h16zm0 0"/><path d="m376 16h72v72h16v-88h-88zm0 0"/><path d="m48 408h-16v88h88v-16h-72zm0 0"/><path d="m448 480h-72v16h88v-88h-16zm0 0"/><path d="m56 104h16v16h-16zm0 0"/><path d="m56 232h16v16h-16zm0 0"/><path d="m56 208v8h16v-8c0-13.230469 10.769531-24 24-24v-16c-13.230469 0-24-10.769531-24-24v-8h-16v8c0 13.230469-10.769531 24-24 24v16c13.230469 0 24 10.769531 24 24zm8-40.246094c2.335938 3.140625 5.105469 5.910156 8.246094 8.246094-3.140625 2.335938-5.910156 5.105469-8.246094 8.246094-2.335938-3.140625-5.105469-5.910156-8.246094-8.246094 3.140625-2.335938 5.910156-5.105469 8.246094-8.246094zm0 0"/><path d="m112 168h16v16h-16zm0 0"/><path d="m0 168h16v16h-16zm0 0"/><path d="m424 200h16v16h-16zm0 0"/><path d="m424 328h16v16h-16zm0 0"/><path d="m440 240v-8h-16v8c0 13.230469-10.769531 24-24 24v16c13.230469 0 24 10.769531 24 24v8h16v-8c0-13.230469 10.769531-24 24-24v-16c-13.230469 0-24-10.769531-24-24zm-8 40.246094c-2.335938-3.140625-5.105469-5.910156-8.246094-8.246094 3.140625-2.335938 5.910156-5.105469 8.246094-8.246094 2.335938 3.140625 5.105469 5.910156 8.246094 8.246094-3.140625 2.335938-5.910156 5.105469-8.246094 8.246094zm0 0"/><path d="m480 264h16v16h-16zm0 0"/><path d="m368 264h16v16h-16zm0 0"/></svg>