<?xml version="1.0" encoding="utf-8"?>
<!-- Generator: Adobe Illustrator 24.3.0, SVG Export Plug-In . SVG Version: 6.00 Build 0)  -->
<svg version="1.1" id="Ebene_1" xmlns="http://www.w3.org/2000/svg" xmlns:xlink="http://www.w3.org/1999/xlink" x="0px" y="0px"
	 viewBox="0 0 724.9 764.6" style="enable-background:new 0 0 724.9 764.6;" xml:space="preserve">
<style type="text/css">
	.st0{opacity:0.42;fill:#278EA5;enable-background:new    ;}
	.st1{fill-rule:evenodd;clip-rule:evenodd;fill:#227A8E;}
	.st2{fill-rule:evenodd;clip-rule:evenodd;fill:#F3F3F3;}
	.st3{fill:none;stroke:#F3F3F3;stroke-width:4.41;stroke-linejoin:round;}
	.st4{fill:none;stroke:#F3F3F3;stroke-width:4.41;stroke-linecap:round;stroke-linejoin:round;}
	.st5{fill-rule:evenodd;clip-rule:evenodd;fill:#1F4287;}
	.st6{enable-background:new    ;}
	.st7{fill:#F3F3F3;}
	.st8{fill:none;stroke:#1F4287;stroke-width:4;stroke-linecap:round;stroke-linejoin:round;}
	.st9{fill:none;stroke:#1F4287;stroke-width:4;stroke-linecap:round;stroke-miterlimit:10;}
</style>
<g id="Layer_2">
	<g id="Layer_1-2">
		<path class="st0" d="M608.4,142.6C544,59.8,438.4,8,354.9,25.7c-83.5,17.5-144.8,104.7-184.2,181.7s-56.9,143.8-42.9,203
			S187.1,521,255.2,571.6c68.1,50.5,158.9,100.1,240.1,80.2S648,542.2,672.1,440.6S672.9,225.3,608.4,142.6z M477.5,350.5
			c-2.4,6.3-8.6,11.5-16.8,15.7c-11.3,34.7-28,69-28,69s-13.3-11-17.7-17.2c2.4-4.4,7.2-23.6,11-42.1c-18.6,2.4-37.7,1.1-49-4.4
			c-6-4.8-17.1-66.2-8.2-117.4c-7.7-4.6-14.6-10.4-20.3-17.3c-0.1-8.2,24.5-38.2,44.3-45.1c-0.3-7.3-2.2-21.8-3.5-29.3
			c-7.9-8.5-12.4-21.6-11.4-35.9c0.3-3.8,0.9-7.6,2-11.3c-1-16.9,3.2-37.4,35.2-38.5c35.1,0,48,30.3,48.5,50
			c0,64.1,23.3,71.6,23.3,111.5c0,18-4,30.1-10.4,38.3C481.4,307.4,481.6,337.3,477.5,350.5z"/>
		<path class="st1" d="M485.8,252.6c-1.5,10.3-4.8,17.9-9.2,23.7c5.1,31.1,5.3,61.4,1.2,74.7c-2.5,6.4-8.9,11.8-17.3,15.9
			c-11.3,34.5-27.8,68.4-27.8,68.4S419.4,424.2,415,418c2.4-4.4,7.1-23.3,10.9-41.6c-18.5,2.3-37.4,0.9-48.6-4.4
			c-6.8-5.4-20.1-83.6-3.5-137.2l-138.3-21.9L210,231.3l-18.5-25.4L62.4,185.5L21.2,445.8l130.4,20.6l24-17.3L193,473l469.6,74.3
			l41.2-260.2L485.8,252.6z"/>
		<path class="st2" d="M479.8,302.7c0.6,8.1,0.9,15.7,0.8,22.6l138.1,21.8l3.5-21.9L479.8,302.7z"/>
		<path class="st2" d="M366,284.7l-110.9-17.6l-3.5,21.9l114.3,18.1C365.7,299.8,365.7,292.3,366,284.7z"/>
		<path class="st3" d="M175.3,450.3l34.8-220.1"/>
		<path class="st2" d="M118.5,345.1l19.6,3.1l-13.5,85.3l-19.6-3.1L118.5,345.1z"/>
		<path class="st2" d="M128.2,284.1l19.6,3.1l-6.9,43.6l-19.6-3.1L128.2,284.1z"/>
		<path class="st4" d="M476.8,358l71.3,11.3"/>
		<path class="st4" d="M251.6,322.3l117.3,18.6"/>
		<path class="st4" d="M246.8,354l133.6,21.1"/>
		<path class="st4" d="M481.3,422.9l95.7,15.2"/>
		<path class="st4" d="M243,385.2l130,20.6"/>
		<path class="st5" d="M478.4,348.4c6.3,30.6,9.4,126.2,8.4,147.6c6.3,14,111.1,145.4,111.1,145.4l-17.5,22
			c0,0-143-109.2-150.7-121.7c-1.6-2.7-6.7-10.2-12.2-21"/>
		<g class="st6">
			<path class="st7" d="M85.2,401.2l-1,6l-6.6,1.4L76,419.5l5.8,3.2l-0.9,5.8l-25.5-14.9l0.9-5.8L85.2,401.2z M72.8,409.6l-10.7,2.1
				l9.5,5.3L72.8,409.6z"/>
			<path class="st7" d="M58.5,394l1.6-10c0.4-2.3,0.8-4,1.3-5.1c0.7-1.5,1.8-2.8,3.2-3.7s3-1.6,4.8-1.9c1.8-0.3,4-0.3,6.6,0.1
				c2.2,0.4,4.1,0.9,5.7,1.8c1.9,1,3.3,2.2,4.3,3.7c0.8,1.1,1.3,2.5,1.6,4.2c0.2,1.3,0.1,2.9-0.2,5l-1.7,10.3L58.5,394z M64,389.3
				l18,2.9l0.7-4.1c0.2-1.5,0.3-2.7,0.3-3.4c-0.1-0.9-0.3-1.7-0.8-2.4c-0.4-0.7-1.2-1.3-2.4-1.9c-1.2-0.6-2.8-1-4.9-1.4
				s-3.7-0.4-4.9-0.2c-1.2,0.2-2.1,0.6-2.9,1.1c-0.7,0.6-1.3,1.3-1.7,2.3c-0.3,0.7-0.6,2.2-1,4.5L64,389.3z"/>
			<path class="st7" d="M90.1,371l-27.2-4.3l1.3-8.2l19.3-2l-17.8-7.8l1.3-8.2l27.2,4.3l-0.8,5.1L72,346.4l20.6,8.8l-0.8,5.3
				l-22.3,2l21.4,3.4L90.1,371z"/>
			<path class="st7" d="M95.1,339.4l-27.2-4.3l0.9-5.5l27.2,4.3L95.1,339.4z"/>
		</g>
		<g class="st6">
			<path class="st7" d="M98,321l-22.6-3.6l-1.3,8.1l-4.6-0.7l3.5-21.6l4.6,0.7l-1.3,8.1l22.6,3.6L98,321z"/>
		</g>
		<g class="st6">
			<path class="st7" d="M88.3,295.5c-2.8-0.4-5-1.2-6.8-2.4c-1.3-0.8-2.4-1.9-3.3-3.1c-0.9-1.2-1.6-2.5-1.9-3.9
				c-0.4-1.8-0.5-3.8-0.1-6c0.6-4,2.4-7,5.3-9c2.9-2,6.5-2.7,10.9-2c4.4,0.7,7.6,2.4,9.7,5.2c2.1,2.8,2.8,6.2,2.2,10.2
				c-0.6,4-2.4,7.1-5.2,9.1C96.2,295.5,92.7,296.2,88.3,295.5z M89,289.8c3.1,0.5,5.5,0.2,7.3-1c1.8-1.2,2.9-2.8,3.2-5
				s-0.2-4.1-1.5-5.8c-1.4-1.7-3.6-2.7-6.8-3.2c-3.1-0.5-5.6-0.2-7.3,0.9c-1.8,1.1-2.8,2.8-3.2,5.1s0.1,4.2,1.5,5.8
				C83.7,288.2,85.9,289.3,89,289.8z"/>
			<path class="st7" d="M106.7,266.9l-27.2-4.3l0.9-5.3l19.9-8.2l-18.2-2.9l0.8-5.1l27.2,4.3l-0.9,5.5l-19.5,8.1l17.7,2.8
				L106.7,266.9z"/>
			<path class="st7" d="M111,239.5l-27.2-4.3l3.2-20.2l4.6,0.7l-2.3,14.7l6,1l2.2-13.7l4.6,0.7l-2.2,13.7l7.4,1.2l2.4-15.2l4.6,0.7
				L111,239.5z"/>
		</g>
		<g>
			<path class="st8" d="M389.5,163.2c1.2,8.2,2.9,17.4,3,25c0.1,1.1,0,2.2-0.2,3.2"/>
			<path class="st8" d="M348.5,234.9c4.9-13.9,37.2-50.6,55.5-43.7"/>
			<path class="st8" d="M379.9,115.3c-1.3-17.2,2.2-38.8,35.2-39.9c35.1,0,48,30.3,48.5,50c0,65.6,23.3,76.7,23.3,111.5
				c0,17.9-4,30-10.4,38.2"/>
			<path class="st8" d="M426,375.9c-18.5,2.3-37.4,1-48.7-4.4c-9.3-7.4-30.7-150.3,28.2-181.3"/>
			<path class="st8" d="M433.8,187.2c40.3,16.9,53.4,133.5,44,163.4c-2.5,6.4-8.8,11.7-17.2,15.8"/>
			<path class="st9" d="M423.2,275.3c2.2,16.5,7.9,54.4,8.5,64c0.6,10.4-12.3,70.6-16.8,78.9c4.5,6.2,17.6,17.2,17.6,17.2
				s24.7-50.6,34.3-91.1c2.8-11.7-3.4-64.6-6-77.2"/>
			<path class="st8" d="M320.9,705.3l-15,35.8l-65.7-25.9l55.6-6.8l6.8-12.7L320.9,705.3z"/>
			<path class="st8" d="M593.9,643l33.4,19.9l-34.8,61.4l1.1-56l-11.6-8.5L593.9,643z"/>
			<path class="st9" d="M432,201.6c22.7-3.3,35.2,48.6,32.4,62.4c-8.1,9.5-30.4,12.9-46.1,10.6C411,267,409.3,205,432,201.6z"/>
			<path class="st8" d="M405.5,192.5v-20.3"/>
			<path class="st8" d="M433.8,161.1V193c-2.9,2.6-10.8,5.1-18.1,4.2"/>
			<path class="st8" d="M419.7,129.2c-17.1-12-22.7-27.7-24.2-37.3c-9.7,7.1-16.6,19.9-17.7,35c-1.6,22.6,10.6,42,27.7,45.2"/>
			<path class="st8" d="M429.8,131.5c4-3.2,9.8-2.6,13,1.4s2.6,9.8-1.4,13c-3.2,2.6-7.6,2.7-11,0.5"/>
		</g>
		<path class="st5" d="M460.6,366.4c-11.3,34.7-28,69-28,69s-13.2-11.1-17.6-17.2c2.4-4.4,7.2-23.7,11.1-42.2
			c-18.4,2.3-37.2,1-48.5-4.3C367.9,404,346.2,491.2,342,518c-4.7,30.2-42.5,176.9-42.5,176.9l21.7,11.7
			c0,0,159.7-284.3,153.9-351.4l0,0C471.9,359.6,466.8,363.3,460.6,366.4"/>
	</g>
</g>
</svg>
