<svg xmlns="http://www.w3.org/2000/svg" xmlns:xlink="http://www.w3.org/1999/xlink" viewBox="0 0 1000 1000"><defs><style>.a,.d,.h,.j{fill:none;}.b{fill:#fff;}.c{fill:url(#a);}.d{stroke:#f9c900;}.d,.h,.j,.k{stroke-miterlimit:10;}.e{fill:#ff120d;}.f{fill:url(#b);}.g{fill:url(#c);}.h{stroke-width:3px;stroke:url(#d);}.i{clip-path:url(#e);}.j,.k{stroke:#000;stroke-width:2px;}.l{fill:url(#f);}.m{fill:url(#g);}.n{fill:url(#h);}.o{fill:url(#i);}.p{fill:url(#j);}.q{fill:url(#k);}.r{fill:url(#l);}.s{fill:url(#m);}</style><linearGradient id="a" x1="699.77" x2="699.77" y2="1000" gradientUnits="userSpaceOnUse"><stop offset="0" stop-color="#0dff57"/><stop offset="1" stop-color="#3d0dff"/></linearGradient><linearGradient id="b" x1="558.29" y1="733.94" x2="558.29" y2="254.06" xlink:href="#a"/><linearGradient id="c" x1="695.29" y1="593" x2="901.85" y2="593" gradientUnits="userSpaceOnUse"><stop offset="0" stop-color="#f9c900" stop-opacity="0"/><stop offset="1" stop-color="#f9c900"/></linearGradient><linearGradient id="d" x1="712.18" y1="409.52" x2="235.63" y2="409.52" gradientUnits="userSpaceOnUse"><stop offset="0" stop-color="#f9c900"/><stop offset="1" stop-color="#f9c900" stop-opacity="0"/></linearGradient><clipPath id="e"><rect class="a" x="318.35" y="254.06" width="479.87" height="479.87"/></clipPath><linearGradient id="f" x1="235.58" y1="351.18" x2="706.94" y2="351.18" gradientTransform="translate(386.35 -230.37) rotate(45)" xlink:href="#d"/><linearGradient id="g" x1="-411.63" y1="-427.71" x2="-260.74" y2="-276.82" gradientTransform="matrix(0.71, 1.43, -0.71, 1.43, 355.35, 1336.7)" gradientUnits="userSpaceOnUse"><stop offset="0" stop-color="#3d0dff"/><stop offset="0.47" stop-color="#3d0dff"/><stop offset="0.48" stop-color="#3d0dff"/><stop offset="0.63" stop-color="#3d0dff" stop-opacity="0.69"/><stop offset="0.81" stop-color="#3d0dff" stop-opacity="0.32"/><stop offset="0.94" stop-color="#3d0dff" stop-opacity="0.09"/><stop offset="1" stop-color="#3d0dff" stop-opacity="0"/></linearGradient><linearGradient id="h" x1="273.37" y1="244.47" x2="185.01" y2="244.47" xlink:href="#a"/><linearGradient id="i" x1="269.2" y1="340.81" x2="189.18" y2="340.81" gradientUnits="userSpaceOnUse"><stop offset="0" stop-color="#35d74b"/><stop offset="1" stop-color="#5d0ed7"/></linearGradient><linearGradient id="j" x1="265.03" y1="437.14" x2="193.35" y2="437.14" gradientUnits="userSpaceOnUse"><stop offset="0" stop-color="#5eb03e"/><stop offset="1" stop-color="#7e0fae"/></linearGradient><linearGradient id="k" x1="260.86" y1="533.47" x2="197.52" y2="533.47" gradientUnits="userSpaceOnUse"><stop offset="0" stop-color="#868932"/><stop offset="1" stop-color="#9e1086"/></linearGradient><linearGradient id="l" x1="256.69" y1="629.81" x2="201.69" y2="629.81" gradientUnits="userSpaceOnUse"><stop offset="0" stop-color="#ae6126"/><stop offset="1" stop-color="#be105e"/></linearGradient><linearGradient id="m" x1="252.52" y1="726.14" x2="205.86" y2="726.14" gradientUnits="userSpaceOnUse"><stop offset="0" stop-color="#d73a19"/><stop offset="1" stop-color="#df1135"/></linearGradient></defs><title>china</title><rect class="b" width="1000" height="1000"/><rect class="c" x="399.55" width="600.45" height="1000"/><rect class="d" x="127.74" y="144.3" width="202.91" height="200.34" rx="100.17" transform="translate(-105.74 233.67) rotate(-45)"/><rect class="d" x="134.9" y="151.38" width="188.58" height="186.19" rx="93.09" transform="translate(-105.74 233.67) rotate(-45)"/><rect class="d" x="142.07" y="158.45" width="174.25" height="172.04" rx="86.02" transform="translate(-105.74 233.67) rotate(-45)"/><rect class="d" x="149.23" y="165.53" width="159.92" height="157.89" rx="78.95" transform="translate(-105.74 233.67) rotate(-45)"/><rect class="d" x="156.4" y="172.6" width="145.59" height="143.74" rx="71.87" transform="translate(-105.74 233.67) rotate(-45)"/><rect class="d" x="163.56" y="179.67" width="131.26" height="129.6" rx="64.8" transform="translate(-105.74 233.67) rotate(-45)"/><rect class="d" x="170.73" y="186.75" width="116.93" height="115.45" rx="57.72" transform="translate(-105.74 233.67) rotate(-45)"/><rect class="d" x="177.89" y="193.82" width="102.6" height="101.3" rx="50.65" transform="translate(-105.74 233.67) rotate(-45)"/><rect class="d" x="185.06" y="200.9" width="88.27" height="87.15" rx="43.58" transform="translate(-105.74 233.67) rotate(-45)"/><rect class="e" x="307.29" y="243" width="502" height="502"/><polygon class="e" points="192.38 56.77 117.16 132 536.29 551.13 536.29 420 555.61 420 192.38 56.77"/><path class="f" d="M362.35,254.06a43.65,43.65,0,0,1-12.8,30l-.8.79a43.6,43.6,0,0,1-30.4,12.81v436.3H798.22V254.06Z"/><path class="g" d="M780.85,593l-85.56,85.56a121,121,0,1,0,0-171.12Z"/><line class="h" x1="236.69" y1="172.31" x2="711.11" y2="646.73"/><g class="i"><line class="j" x1="468.57" y1="780.57" x2="765.59" y2="483.55"/><line class="j" x1="365.5" y1="783" x2="765.5" y2="383"/></g><circle class="k" cx="765.01" cy="383.48" r="7.5"/><circle class="k" cx="668.39" cy="383.4" r="15"/><circle class="k" cx="765.11" cy="484.04" r="3.75"/><rect class="l" x="440.26" y="48.88" width="61.99" height="604.61" transform="translate(-110.29 436.09) rotate(-45)"/><line class="j" x1="229.4" y1="822.4" x2="668.54" y2="383.26"/><path class="m" d="M344.83,134.53h0a43.79,43.79,0,0,1,43.79,43.79V566.76a0,0,0,0,1,0,0H344.83a0,0,0,0,1,0,0V134.53a0,0,0,0,1,0,0Z" transform="translate(-140.53 362.01) rotate(-45)"/><path class="n" d="M197.83,213.91l.79-.8a43.81,43.81,0,0,1,61.93,0h0a43.81,43.81,0,0,1,0,61.93l-.8.79a43.77,43.77,0,0,1-61.92,0h0a43.79,43.79,0,0,1,0-61.92Z"/><path class="o" d="M202.13,313.09c7.13-7.13,18.07-12.3,27.41-12.3s20.26,5.15,27.39,12.28h0c7.12,7.12,12.27,18.05,12.27,27.38s-5.17,20.29-12.29,27.41l-.71.71c-7.13,7.13-18,12.25-27.36,12.25s-20.27-5.15-27.39-12.28h0c-7.13-7.12-12.27-18.05-12.27-27.38s5.12-20.24,12.24-27.36Z"/><path class="p" d="M205.64,413.06c5.7-5.7,16.38-11.76,23.85-11.76s18.12,6,23.82,11.72h0c5.7,5.7,11.72,16.34,11.72,23.81S259,455,253.27,460.69l-.63.62C246.94,467,236.35,473,228.88,473s-18.11-6-23.81-11.72h0c-5.7-5.7-11.72-16.35-11.72-23.82s6-18.06,11.66-23.76Z"/><path class="q" d="M209.15,513c4.27-4.27,14.7-11.23,20.3-11.23s16,6.9,20.24,11.17h0c4.27,4.28,11.17,14.64,11.17,20.24s-7,16-11.23,20.3l-.54.54c-4.28,4.28-14.56,11.09-20.16,11.09s-16-6.89-20.24-11.17h0c-4.28-4.27-11.17-14.64-11.17-20.24s6.81-15.88,11.09-20.16Z"/><path class="r" d="M212.65,613c2.85-2.85,13-10.71,16.75-10.71s13.82,7.77,16.67,10.62h0c2.85,2.85,10.62,12.94,10.62,16.67s-7.85,13.9-10.7,16.75l-.46.46c-2.85,2.85-12.82,10.51-16.55,10.51s-13.82-7.77-16.67-10.62h0c-2.85-2.85-10.62-12.94-10.62-16.67s7.66-13.71,10.51-16.56Z"/><path class="s" d="M216.16,713c1.43-1.43,11.33-10.17,13.2-10.17s11.66,8.64,13.09,10.07h0c1.42,1.42,10.07,11.22,10.07,13.09s-8.75,11.77-10.17,13.2l-.37.37c-1.43,1.42-11.09,9.93-13,9.93s-11.67-8.65-13.09-10.07h0c-1.43-1.43-10.07-11.23-10.07-13.09s8.51-11.53,9.93-13Z"/><polygon class="e" points="210.03 822.59 219.67 812.95 229.31 803.31 248.35 822.35 238.71 831.99 229.07 841.63 210.03 822.59"/><rect class="e" x="515.14" y="802" width="15.43" height="141"/><rect class="e" x="475.14" y="802" width="23.14" height="141"/><rect class="e" x="802.29" y="802" width="61.71" height="141"/><rect class="e" x="748.57" y="802" width="36.86" height="141"/><rect class="e" x="700.86" y="802" width="30.86" height="141"/><rect class="e" x="648" y="802" width="36" height="141"/><rect class="e" x="595.14" y="802" width="36" height="141"/><rect class="e" x="547.43" y="802" width="30.86" height="141"/></svg>