<svg xmlns="http://www.w3.org/2000/svg" xmlns:xlink="http://www.w3.org/1999/xlink" viewBox="0 0 1000 1000"><defs><style>.a,.d,.f,.h{fill:none;}.b{fill:#fff;}.c{fill:#f9c900;}.d,.h,.i{stroke:#000;}.d,.f,.h,.i{stroke-miterlimit:10;}.e{fill:url(#a);}.f{stroke-width:3px;stroke:url(#b);}.g{clip-path:url(#c);}.h,.i{stroke-width:2px;}.j{fill:url(#d);}.k{fill:url(#e);}.l{fill:url(#f);}.m{fill:url(#g);}.n{fill:url(#h);}.o{fill:url(#i);}.p{fill:url(#j);}</style><linearGradient id="a" x1="558.29" y1="733.94" x2="558.29" y2="254.06" gradientUnits="userSpaceOnUse"><stop offset="0" stop-color="#886bff"/><stop offset="1" stop-color="#3d0dff"/></linearGradient><linearGradient id="b" x1="712.18" y1="409.52" x2="235.63" y2="409.52" gradientUnits="userSpaceOnUse"><stop offset="0" stop-color="#fce894"/><stop offset="1" stop-color="#fce894" stop-opacity="0"/></linearGradient><clipPath id="c"><rect class="a" x="318.35" y="254.06" width="479.87" height="479.87"/></clipPath><linearGradient id="d" x1="235.58" y1="385.43" x2="801.13" y2="385.43" gradientUnits="userSpaceOnUse"><stop offset="0" stop-color="#fce894"/><stop offset="1" stop-color="#fce894" stop-opacity="0.5"/></linearGradient><linearGradient id="e" x1="-93.17" y1="-109.24" x2="57.72" y2="41.65" gradientTransform="matrix(0.71, 1.43, -0.71, 1.43, 355.35, 424.44)" gradientUnits="userSpaceOnUse"><stop offset="0" stop-color="#3d0dff"/><stop offset="0.47" stop-color="#3d0dff"/><stop offset="0.48" stop-color="#3d0dff"/><stop offset="0.63" stop-color="#3d0dff" stop-opacity="0.69"/><stop offset="0.81" stop-color="#3d0dff" stop-opacity="0.32"/><stop offset="0.94" stop-color="#3d0dff" stop-opacity="0.09"/><stop offset="1" stop-color="#3d0dff" stop-opacity="0"/></linearGradient><linearGradient id="f" x1="291.51" y1="244.47" x2="166.87" y2="244.47" gradientTransform="translate(240 -90.46) rotate(45)" xlink:href="#a"/><linearGradient id="g" x1="280.72" y1="388.97" x2="177.66" y2="388.97" gradientTransform="translate(342.17 -48.13) rotate(45)" gradientUnits="userSpaceOnUse"><stop offset="0" stop-color="#a483bf"/><stop offset="1" stop-color="#6c3cbf"/></linearGradient><linearGradient id="h" x1="269.93" y1="533.47" x2="188.45" y2="533.47" gradientTransform="translate(444.35 -5.81) rotate(45)" gradientUnits="userSpaceOnUse"><stop offset="0" stop-color="#c19a80"/><stop offset="1" stop-color="#9b6b80"/></linearGradient><linearGradient id="i" x1="259.14" y1="677.97" x2="199.24" y2="677.97" gradientTransform="translate(546.53 36.51) rotate(45)" gradientUnits="userSpaceOnUse"><stop offset="0" stop-color="#ddb240"/><stop offset="1" stop-color="#ca9a40"/></linearGradient><linearGradient id="j" x1="857" y1="593" x2="1000" y2="593" gradientUnits="userSpaceOnUse"><stop offset="0" stop-color="#fce894" stop-opacity="0.1"/><stop offset="1" stop-color="#fce894"/></linearGradient></defs><title>greece</title><rect class="b" width="1000" height="1000"/><rect class="c" x="616.86" width="383.14" height="383.14"/><rect class="d" x="127.74" y="144.3" width="202.91" height="200.34" rx="100.17" transform="translate(-105.74 233.67) rotate(-45)"/><rect class="d" x="134.9" y="151.38" width="188.58" height="186.19" rx="93.09" transform="translate(-105.74 233.67) rotate(-45)"/><rect class="d" x="142.07" y="158.45" width="174.25" height="172.04" rx="86.02" transform="translate(-105.74 233.67) rotate(-45)"/><rect class="d" x="149.23" y="165.53" width="159.92" height="157.89" rx="78.95" transform="translate(-105.74 233.67) rotate(-45)"/><rect class="d" x="156.4" y="172.6" width="145.59" height="143.74" rx="71.87" transform="translate(-105.74 233.67) rotate(-45)"/><rect class="d" x="163.56" y="179.67" width="131.26" height="129.6" rx="64.8" transform="translate(-105.74 233.67) rotate(-45)"/><rect class="d" x="170.73" y="186.75" width="116.93" height="115.45" rx="57.72" transform="translate(-105.74 233.67) rotate(-45)"/><rect class="d" x="177.89" y="193.82" width="102.6" height="101.3" rx="50.65" transform="translate(-105.74 233.67) rotate(-45)"/><rect class="d" x="185.06" y="200.9" width="88.27" height="87.15" rx="43.58" transform="translate(-105.74 233.67) rotate(-45)"/><rect class="c" x="307.29" y="243" width="502" height="502"/><path class="c" d="M757.29,593l85.56-85.56a121,121,0,1,0,0,171.12Z"/><polygon class="c" points="192.38 56.77 117.16 132 536.29 551.13 536.29 420 555.61 420 192.38 56.77"/><path class="e" d="M362.35,254.06a43.65,43.65,0,0,1-12.8,30l-.8.79a43.6,43.6,0,0,1-30.4,12.81v436.3H798.22V254.06Z"/><line class="f" x1="236.69" y1="172.31" x2="711.11" y2="646.73"/><g class="g"><line class="h" x1="468.57" y1="780.57" x2="765.59" y2="483.55"/><line class="h" x1="365.5" y1="783" x2="765.5" y2="383"/></g><circle class="i" cx="765.01" cy="383.48" r="7.5"/><circle class="i" cx="668.39" cy="383.4" r="15"/><circle class="i" cx="765.11" cy="484.04" r="3.75"/><path class="j" d="M757.3,627.55a34.17,34.17,0,1,1,24-58.52l19.68-19.68a62,62,0,0,0-87.47.19l-434-434-43.84,43.84L713.46,637.21h0l1.14,1.1.4.38.76.7.48.42c.23.21.46.42.7.62l.52.43c.22.19.45.39.68.57s.36.3.55.44l.66.53.58.44.66.5.59.42.66.48.61.41.66.45.63.41.66.42.65.39c.21.14.43.27.65.4l.66.38.66.38.67.37.66.36.69.35.66.34.69.33.67.32.71.32.65.3.73.31.66.27.73.3.66.25.74.28.66.24.76.26.65.22.77.24.65.2.79.23.64.18.79.21.64.17.81.19.64.15.81.17.63.13.83.16.63.11.84.14.61.1.86.12.6.08.87.1.6.06.87.08.6,0c.29,0,.59.05.88.06l.59,0,.89,0,.58,0,.9,0h2l.92,0,.55,0,.93-.05.53,0,1-.07.52,0,1-.09.51-.06,1-.11.5-.07,1-.14.49-.08,1-.16.48-.09,1-.19.46-.09,1-.22.44-.1,1-.24.43-.11,1-.27.42-.12,1-.3.4-.12,1-.33.39-.13,1-.35.38-.14,1-.38.36-.14,1-.42.34-.14c.35-.15.7-.29,1-.45l.33-.14,1-.48.31-.15,1.05-.51.29-.15,1-.55.28-.15,1-.58.25-.14c.36-.2.71-.41,1.06-.62l.24-.14,1.06-.66a1.64,1.64,0,0,0,.22-.14l1.07-.69.19-.14c.36-.24.72-.48,1.07-.73l.18-.13,1.07-.77.16-.12,1.08-.82.13-.11,1.08-.86.1-.09c.37-.3.73-.61,1.09-.92l.08-.07,1.1-1,0,0c.72-.65,1.42-1.32,2.11-2h0l-19.67-19.67A34.1,34.1,0,0,1,757.3,627.55Z"/><path d="M778.3,583l-5.24,5.24a6.74,6.74,0,0,0,0,9.54L778.3,603a6.74,6.74,0,0,0,11.51-4.76v-10.5A6.74,6.74,0,0,0,778.3,583Z"/><line class="h" x1="229.4" y1="822.4" x2="668.54" y2="383.26"/><path class="k" d="M344.83,134.53h0a43.79,43.79,0,0,1,43.79,43.79V566.76a0,0,0,0,1,0,0H344.83a0,0,0,0,1,0,0V134.53A0,0,0,0,1,344.83,134.53Z" transform="translate(-140.53 362.01) rotate(-45)"/><rect class="l" x="184.84" y="200.69" width="88.7" height="87.57" transform="translate(-105.74 233.67) rotate(-45)"/><rect class="m" x="192.52" y="352.77" width="73.34" height="72.41" transform="translate(-207.92 275.99) rotate(-45)"/><rect class="n" x="200.2" y="504.85" width="57.98" height="57.25" transform="translate(-310.09 318.31) rotate(-45)"/><rect class="o" x="207.88" y="656.93" width="42.63" height="42.09" transform="translate(-412.27 360.63) rotate(-45)"/><rect class="c" x="215.55" y="809.01" width="27.27" height="26.92" transform="translate(-514.45 402.96) rotate(-45)"/><rect class="c" x="495.14" y="771" width="23.14" height="18"/><rect class="c" x="535.14" y="771" width="15.43" height="18"/><rect class="c" x="567.43" y="771" width="30.86" height="18" transform="translate(1165.71 1560) rotate(180)"/><rect class="c" x="615.14" y="771" width="36" height="18" transform="translate(1266.29 1560) rotate(180)"/><rect class="c" x="668" y="771" width="36" height="18" transform="translate(1372 1560) rotate(180)"/><rect class="c" x="583" y="806" width="254" height="56" rx="28" transform="translate(1420 1668) rotate(-180)"/><rect class="c" x="634.89" y="879" width="86.11" height="15" transform="translate(1355.89 1773) rotate(180)"/><rect class="c" x="720.86" y="771" width="30.86" height="18" transform="translate(1472.57 1560) rotate(180)"/><rect class="c" x="768.57" y="771" width="36.86" height="18" transform="translate(1574 1560) rotate(180)"/><rect class="c" x="822.29" y="771" width="61.71" height="18" transform="translate(1706.29 1560) rotate(180)"/><rect class="p" x="857" y="563" width="143" height="60"/><path d="M870.76,568l13.12,13.12a16.84,16.84,0,0,1,0,23.82L870.76,618c-10.61,10.62-28.76,3.1-28.76-11.91V579.88C842,564.87,860.15,557.35,870.76,568Z"/><path d="M870.76,568l13.12,13.12a16.84,16.84,0,0,1,0,23.82L870.76,618c-10.61,10.62-28.76,3.1-28.76-11.91V579.88C842,564.87,860.15,557.35,870.76,568Z"/></svg>