<?xml version="1.0" encoding="utf-8"?>
<!-- Generator: Adobe Illustrator 23.0.0, SVG Export Plug-In . SVG Version: 6.00 Build 0)  -->
<svg version="1.1" id="Ebene_1" xmlns="http://www.w3.org/2000/svg" xmlns:xlink="http://www.w3.org/1999/xlink" x="0px" y="0px"
	 viewBox="0 0 1000 750" style="enable-background:new 0 0 1000 750;" xml:space="preserve">
<g>
	<title>kuro</title>
	<path d="M137.3,289.8c0-1.4,0.5-2.8,1.4-3.8c1-1.1,2.5-1.7,3.9-1.6h36.1c1.4,0.1,2.7,0.6,3.8,1.5c1.3,0.9,2,2.3,2,3.9v66.4
		c8.9-11.3,17.6-22.5,26.1-33.7l25.9-33.7c0.9-1.4,2.1-2.5,3.5-3.4c1.3-0.8,2.7-1.2,4.2-1.3h46.3c1.9,0,2.9,0.6,2.9,1.8
		c-0.1,1.1-0.6,2.1-1.3,2.9l-57.4,75.8l63.5,95.6c0.7,1,1.2,2.1,1.4,3.3c0,1.2-0.9,1.8-2.7,1.8h-46.1c-1.4,0-2.9-0.4-4.1-1.2
		c-1.4-0.8-2.5-1.9-3.4-3.3c-4.2-5.9-8.2-11.5-11.8-16.8c-3.5-5.4-7-10.7-10.3-16l-10.1-16.2c-3.4-5.5-7.2-11.2-11.2-17.2
		l-15.5,17.8v47.6c0,3.6-2,5.3-5.8,5.3h-35.9c-2.6,0.4-5-1.4-5.5-4c-0.1-0.5-0.1-0.9,0-1.4V289.8z"/>
	<path d="M368.1,393.3c-0.1,5.2,0.7,10.4,2.5,15.3c1.5,3.8,3.7,7.3,6.6,10.2c2.7,2.6,6,4.6,9.5,5.8c3.6,1.2,7.5,1.8,11.3,1.8
		c3.9,0,7.9-0.7,11.5-2.1c3.6-1.4,6.8-3.6,9.5-6.4c2.8-3,5.1-6.6,6.5-10.4c1.7-4.6,2.5-9.4,2.4-14.3V289.8c0-1.4,0.5-2.8,1.5-3.8
		c1.1-1.1,2.6-1.7,4.1-1.6h35.6c1.6-0.1,3.2,0.5,4.4,1.6c1,1,1.6,2.3,1.6,3.7v102.8c0,14.2-2.1,26.2-6.3,35.8c-3.7,9-9.6,17-17,23.3
		c-7.2,6-15.6,10.3-24.6,12.7c-9.6,2.6-19.4,3.9-29.3,3.8c-9.9,0-19.8-1.3-29.4-3.9c-9-2.5-17.4-6.9-24.6-12.9
		c-7.4-6.4-13.2-14.4-17-23.3c-4.2-9.6-6.4-21.4-6.4-35.4V289.8c0-1.4,0.5-2.7,1.4-3.7c0.8-1,2.1-1.6,3.5-1.6H362
		c1.4,0.1,2.8,0.6,3.8,1.5c1.3,0.9,2,2.3,2,3.8L368.1,393.3z"/>
	<path d="M508.3,290c-0.1-1.5,0.4-2.9,1.4-4.1c1-1.1,2.5-1.6,4-1.5h78.8c8.1-0.1,16.1,1.5,23.5,4.7c7.1,3,13.6,7.3,19.1,12.7
		c5.5,5.4,9.8,11.8,12.9,18.8c3.1,7.3,4.7,15.1,4.7,23c0,5.3-0.7,10.7-2.2,15.8c-2.9,9.8-8.4,18.8-15.9,25.8
		c-3.7,3.5-7.7,6.6-12.1,9.1l31.3,59c0.6,1.1,1.3,2.5,2.1,4c0.8,1.2,1.3,2.6,1.4,4c0.1,1.1-0.4,2.3-1.3,3c-1,0.7-2.2,1.1-3.5,1
		h-41.7c-1.3,0-2.6-0.4-3.7-1.2c-1.1-0.8-1.8-2-2.1-3.3l-29.7-55.7h-19.8v55c0,3.5-1.9,5.2-5.6,5.2h-36.2c-1.4,0.1-2.8-0.4-3.9-1.3
		c-1.1-1-1.6-2.5-1.5-4V290z M603.8,344.2c0-2.5-0.5-5-1.3-7.3c-0.9-2.4-2.2-4.7-3.8-6.7c-1.6-2-3.6-3.8-5.8-5.1
		c-2.3-1.4-4.9-2.3-7.6-2.7l-6.4-0.4c-2-0.1-4.2-0.2-6.5-0.2h-16.8v44.8h22.5c1.4,0,2.8,0,3.9-0.1s2.4-0.2,3.8-0.4
		c2.7-0.3,5.3-1.1,7.7-2.5c2.2-1.3,4.2-3,5.7-5c1.5-2,2.7-4.3,3.5-6.7C603.4,349.3,603.8,346.7,603.8,344.2z"/>
	<path d="M676.2,375.1c0-24.8,9.8-48.5,27.3-66.1c5.6-5.7,11.9-10.6,18.8-14.6c7-4.1,14.5-7.2,22.3-9.4c16.2-4.5,33.4-4.5,49.6,0
		c7.8,2.2,15.3,5.3,22.3,9.4c13.9,8.1,25.4,19.6,33.5,33.5c4.1,7,7.2,14.5,9.4,22.4c4.5,16.2,4.5,33.4,0,49.6
		c-2.2,7.8-5.3,15.2-9.4,22.2c-4,6.9-8.9,13.2-14.6,18.8c-5.7,5.6-12,10.5-18.9,14.6c-7,4.1-14.5,7.3-22.3,9.4
		c-40.7,11.1-83.9-6.4-105.3-42.8c-4.1-6.9-7.3-14.4-9.4-22.2C677.3,391.9,676.1,383.5,676.2,375.1z M723.3,375
		c-0.1,6.5,1.1,12.9,3.4,18.9c2.2,5.7,5.4,10.9,9.6,15.3c4.1,4.4,9.1,7.8,14.6,10.2c5.8,2.5,12.1,3.8,18.5,3.7
		c6.4,0.1,12.7-1.2,18.6-3.7c5.5-2.4,10.5-5.9,14.6-10.2c4.1-4.4,7.4-9.6,9.5-15.3c4.6-12.2,4.6-25.6,0-37.8
		c-2.2-5.7-5.4-10.9-9.5-15.4c-4.1-4.4-9.1-7.9-14.6-10.4c-5.9-2.6-12.2-3.8-18.6-3.8c-12.5-0.2-24.5,5-33.1,14.2
		c-4.2,4.5-7.4,9.7-9.6,15.4C724.5,362.2,723.3,368.6,723.3,375L723.3,375z"/>
</g>
</svg>
