<?xml version="1.0" encoding="utf-8"?>
<!-- Generator: Adobe Illustrator 23.0.0, SVG Export Plug-In . SVG Version: 6.00 Build 0)  -->
<svg version="1.1" id="Ebene_1" xmlns="http://www.w3.org/2000/svg" xmlns:xlink="http://www.w3.org/1999/xlink" x="0px" y="0px"
	 viewBox="0 0 1000 750" style="enable-background:new 0 0 1000 750;" xml:space="preserve">
<title>tyranno_2</title>
<g>
	<path d="M355.2,297.4v0.1c0,0.3,0.3,0.5,0.8,0.5l1.2-0.4c2.8-0.2,4.4,2.3,4.7,7.5v0.4l-1.3,2.3l-0.9,2.3c0.3,1.1,0.5,2.2,0.6,3.3
		c0.1,0.9,0,1.8-0.3,2.7c-0.5,1.4-9,15.4-25.5,41.9c-13.2,23.5-22.8,40.6-28.4,48.9c-5.6,8.3-22.4,31-23.1,32.9l-1.6,0.1l0.3-1
		c-0.7,0.1-1.1,0.4-1.3,0.7c0.1,0.2,0.2,0.4,0.2,0.7c0,0.1,0,0.2-0.1,0.3l-1.1,0.1c-1.8-1.7-7-4.8-7.2-7c-0.1-1-1-2.2-0.8-3.3
		l-0.1-0.8c-0.3-4.1,14.3-25.4,17.9-31.7c2.5-4.5,4.7-9.2,6.4-14l0.4-1c0.1-0.2,0.3-0.3,0.6-0.4c0,0,0.1-0.1,0.1-0.1
		c0-0.1-0.2-0.2-0.5-0.2l1.4-2.3l1.1-3l0.2-1.5h0.5l-1.9-5.9h-0.5l-0.1,0.3c-0.2,1.8-0.6,3.7-1.1,5.4l-1,0.1l0.1-2.9h-0.6l-0.4,1
		l-0.3,2.3l-1.1,0.1c-1.3-1.2-6.4-11.6-15.1-31.3c-0.7-3.1-1.2-6.2-1.4-9.4c-0.4-3.3,0-6.7,1-9.9c0.4-1.1,2.1-2.3,4.9-3.5
		c0.5,0.2,1,0.2,1.5,0.2c0.6-0.9,2.3-1.7,5.2-2.6c0.6,0.2,1.3,0.2,2,0.2c1-1,2.1-1.7,3.4-2.2l1.7,0.8c0.3-0.4,0.8-0.7,1.3-0.7
		l1.1-0.1c1.7,0.2,3.2,1,4.3,2.3c2.3-0.2,4.7,8.1,7.2,24.8c0.3,4.8,0.8,7.2,1.4,7.2c11.6-21.2,18.3-33.2,20.1-36.2l1.7-0.1l0.9,0.3
		c0.3-0.8,2.1-1.7,5.3-2.9c5.1-9,8.8-13.6,11-13.7l1.9,0.5C352.7,298.3,353.9,297.4,355.2,297.4z"/>
	<path d="M305.2,286.3l0.3,0.1c-0.1,0.4-2.4,1.1-6.8,2.2l-8.6,3.5l-0.1,0.3l0.3,0.1l9.4-0.9l-0.1,0.3c0.4-0.1,0.9-0.2,1.3-0.2
		c0.5,0,1,0,1.8,0.1c-0.1,0.5-1.2,0.8-3.3,1l-0.1,0.3l0.9,0.2c0.5-0.2,1.1-0.3,1.7-0.3c0.3,0,0.6,0,0.8,0.1l-0.8,0.8l0.6,0.1
		l-0.1,0.6h-0.3c-0.9,0-1.3,0.2-1.4,0.6l0.9,0.2l-0.1,0.3c-1.2,1.5-2.7,2.7-4.3,3.6l0.2,0.6l-0.1,0.6l-2.2,0.2l-0.1,0.3l0.3,0.1h1.8
		l0.3,0.1c-3,3.2-10.8,6-23.2,8.3c-1.7,0-3.4,0.3-5.1,0.8c0.2,0,0.2,0.4,0.2,1.2c0,4.7-2.5,22.3-7.4,52.9c-0.5,3-1,5.6-1.7,8
		l-8.6,58.6c-1.2,7.1-3.8,18.3-8,33.4l-0.3-0.1c-0.3-0.1-0.4-0.3-0.4-0.8c0-0.6,0.1-1.1,0.2-1.7h-0.3c-0.4,1.3-0.8,1.9-1.2,1.9h-0.4
		c-0.5-0.1-0.8-3.6-0.8-10.6c0-2.1,0-4.6,0.1-7.4c-0.3-0.1-0.4-0.3-0.4-0.8c0-0.6,0.1-1.1,0.2-1.7l-0.3-0.1l-0.1,0.3
		c-1.3,10.4-2.2,21.3-2.7,32.8v0.3c-0.5-0.1-0.8-1.8-0.8-5c0-2.9,0.2-7.1,0.6-12.5c-0.1-6-0.2-11.4-0.2-16.2c0-11.9,0.3-20,1-24.2
		l-0.3-0.1c-1,3.5-1.6,5.7-1.7,6.4l-0.6-0.1l0.8-4.5l-0.3-0.1c-0.8,2.4-1.5,4.9-1.9,7.4c-0.6,3.8-1.1,10.5-1.5,20l-0.8-0.2
		c0.4-10.9,0.6-25,0.6-42.3c0.8-4.9,1.3-14.7,1.3-29.4c0.1-0.8,1.1-1.2,3-1.4c-0.4-1.5-0.6-3.1-0.7-4.6v-0.4
		c0.1-0.5,0.5-0.7,1.1-0.7h0.2v-0.7c0-6.9,1.5-19.1,4.4-36.8l3.2-18.8c-0.2-0.1-0.4-0.1-0.7-0.1c-6.4,0.5-12.7,1.7-18.9,3.4
		c-7.4,2.1-11.5,3.4-19.8,5.9v-0.6h0.3c0.4,0,0.6-0.2,0.6-0.5h-0.3l-1.3,0.5v-0.3c0-0.3,1.5-1.5,4.6-3.9l-0.3-0.1l-6.1,0.1
		c-3.7-0.5-6.8-0.9-9.4-1.2c-0.7-0.1-1.4-0.1-2,0c-3.3,0.3-8.8,1.3-16.5,3.3l-3-0.3c-0.9,1.3-2.9,2.1-6,2.5l-9.6,2.2l-0.2-0.6
		c0-0.3,2.4-1.3,7.2-3l0.1-0.3h-0.3c-5.1,1.2-8.2,1.8-9.3,1.9h-0.3l-1.2-0.1v-0.6h0.1c0.8-0.1,6-2,15.7-5.9l0.1-0.3l-0.3-0.1
		l-16.3,2.2l-0.3-0.6c7.9-1.5,13.4-2.7,16.5-3.4v-0.3c-1-0.1-1.5-0.3-1.5-0.6v-0.1c0.5-0.4,1.1-0.6,1.7-0.7h0.2l0.1-0.3l-1.5-0.1
		l0.1-0.3c2.8-2,13.8-5.1,33-9.3c10.7-2.5,31.2-7.1,50.5-9.6c0.2-1,0.7-1.5,1.6-1.5c0.2,0,0.4,0,0.5,0.1c0,0.4,0.2,0.6,0.5,0.7
		c0.3-1.3,0.8-1.9,1.4-1.9h0.2l3.1,2c5.1-0.6,12.8-1.2,23.4-1.9c3.1-0.9,9.2-1.4,18.1-1.6c1.6-0.6,3.3-0.9,4.9-1
		C304.6,286.2,304.9,286.3,305.2,286.3z M236.2,391.9c-0.8,0-1.5,2.6-2,7.7l-0.5,4.6l0.2,0.6h0.2c0.3,0,0.5-0.2,0.5-0.5l0.2-1.5
		c0.4-3.5,1-7,1.8-10.5C236.4,392.2,236.2,392.1,236.2,391.9z"/>
	<path d="M377.6,281.7c0.4,0.1,3.6,0.6,3.6,0.6s5,0.3,10.6,0.3c5.6,0.1,33.6-3.6,41.6,1c8,4.7,15.9,10.1,15.5,19.1
		c-0.4,9-3.1,18.3-11.8,23.6c-8.8,5.3-8.7,7.3-25.2,11.8c0,0,19.4,25.7,21.2,28.3c1.8,2.7,6.9,10.3,12.9,19.7c0,0.3-7-6.9-15.3-14.6
		l17,32.2l-7.7-5.7c0.3,0.3,0.4,0.8,0.5,1.2v0.2l-1.2-0.2c-1.8-0.8-6.8-4.2-26.2-22.8c-7.3-8.5-15.2-18.8-23.8-31.1l-0.4-0.1
		c-4.7,19-11.1,36.7-18.1,59.5c-1.2,2.6-3.5,8.3-6.8,17.1l-0.8-0.2l1.5-5.9l-0.4-0.1l-1.1,2.9l-0.6,2.3l-0.4-0.1
		c-2.1-0.3-3.8-4.3-5.1-11.9c0.1-1.5,0-2.9-0.4-4.4c0,0,0.4-2.6-2.8,8c1.6-7.6,2.4-11.9,2.4-12.7v-0.2c0,0-0.1,0.1-0.2,0.2l-2-4
		c3.8-11.8,7-23.9,9.5-36.1l0.3-1.2l-0.4-0.1c-1.9,6.8-5,23.7-7.8,31.4l-2.7,5.3c-0.8,1-1.5,1.6-1.8,1.6s-0.4-0.3-0.4-0.8
		c-0.1-2.5,3.6-21,9.4-36c1.7-6.8,3.5-16.2,5.3-28.2c0.7-3.3,1.8-6.5,3.2-9.6v-0.1c0-0.1-0.1-0.1-0.3-0.2c3.6-7.8,6.5-15.9,8.5-24.3
		c-4.9-1.4-10.4-4.8-16.3-10.5l9.3-3.6C371.1,283.8,377.6,281.7,377.6,281.7z M400.7,300.7l-0.6,0.2l-5.7,23.3
		c10.7-3.4,34.3-5.5,33.9-16.6C428,296.6,400.7,300.7,400.7,300.7L400.7,300.7z"/>
	<path d="M517.3,279.3c0,0.4,0.3,0.6,0.8,0.6c0.4-0.1,0.9-0.1,1.3-0.1c2.7,2.1,3.7,5.2,3.1,9.2l-0.1,0.6
		c-6.7,22.4-10.6,36.1-11.5,41.2c3.6-0.2,5.7-0.2,6.1-0.1c0,0.2-0.9,0.5-2.8,0.9l0.4,0.1c1-0.2,2-0.2,3.1-0.1
		c-0.8,0.6-3.6,1.6-8.4,2.9c-1.2,5.2-2,8.6-2.3,10.3l-0.4-0.1c0,0.2,0.1,0.2,0.3,0.3c-7.3,23.6-13.5,53.6-13.6,54.6l-0.9-0.1
		l0.1-0.4c0.2-1.3,0.2-2.6,0.2-3.9l-0.4-0.1l-0.7,4.3l-0.9-0.1l0.1-0.8c-0.8-0.1-1.5,1.3-2,4.4l-0.9-0.1l0.1-3.1l-0.4-0.1l-0.5,2.8
		l-0.9-0.1c-1.4-2.9-2.3-6-2.7-9.2l-0.4-0.1l-0.2,0.8l-0.8-0.1l0.7-4.1l-0.4-0.1l-1,3v0.2l-0.9-0.1c-0.7-2.7-0.7-6.6,0-11.6
		c0.1-0.9,0.3-1.9,0.5-3l-0.9-0.1l-0.1,0.7l-0.9-0.1l0.7-1.7l0.5-2.3l-0.4-0.1c-0.4,1.2-0.9,2.3-1.5,3.4l-0.9-0.1l0.1-0.7
		c0.1-1,0-2-0.3-3c2.2-9,6-31.8,6.3-33.1c-12,3.6-20.6,5.2-25.9,4.8c-6.1,5.4-11.3,9.1-15.6,10.9l-5.1-1l-1.7-0.3l-0.9,0.1
		c-0.2-0.3-0.3-0.7-0.2-1.1l-0.9,0.2c-2.4-2.5-3.5-4.4-3.3-5.6l0.1-0.8c1-5.6,15.9-19.7,44.6-42.4c1.9-1.8,10.4-8.3,25.4-19.3
		c0.8-4,3.7-5.7,8.8-4.9l0.4,0.6l-0.5,0.4l1.7,0.2c0.3-1.5,1.5-2.5,3.6-3.1c0.4,0.2,0.8,0.4,1.2,0.5
		C515.5,279.8,516.1,279.6,517.3,279.3z M492.7,313.2c-0.2,1.1-6.6,7.5-19.3,19.4c4.4-0.7,8.9-1.1,13.3-1.2v-0.2l6.3-17.7l0.1-0.2
		L492.7,313.2z M498.5,288.8c-0.6,0.9-1.4,1.8-2.2,2.5v0.2l0.4,0.1c0.1-0.4,0.7-1,2-1.7l0.2-1L498.5,288.8z"/>
	<path d="M594.7,273.5l0.9-0.1l-0.4,3.1h0.4l0.6-1.6l0.1-0.9h0.9c0.3,0,0.4,0.8,0.5,2.3c0.2,4.2-0.2,14.2-1.2,30
		c-1.1,8.5-3.2,23.5-6.3,45.1h-0.4l0.3,0.6c0,0.2-0.1,0.3-0.4,0.3v0.1c0,0.2,0.1,0.2,0.4,0.2c-0.6,3.1-1,5.3-1.2,6.8l-0.2,1.2
		c-0.1,0.5-0.3,0.9-0.6,1.3v0.1c0,0.2,0.1,0.2,0.4,0.2c-0.6,2.8-1,4.8-1.2,6.1l-1.1,6.9l-0.7,1.9l0.4,0.6c-0.2,1.5-1.5,4.9-3.9,10.2
		l1.8,7.2c-1.2-0.6-2-1.7-2.4-2.9H581v0.6c0.5,0.7,0.9,1.5,1,2.3c0,0.1,0,0.3-0.1,0.4c-1.3-1-2.7-1.9-4.2-2.5h-0.8l-3.9,1.5
		c-5.6,0.3-9.1-2.5-10.6-8.6c-0.1-0.9-0.2-1.7-0.2-2.4c-0.1-1.3-0.1-2.6,0.1-4l0.7-6.4l-14.4-26.1h-0.4c0,0.7-0.2,1.3-0.7,1.9v0.1
		c0,0.2,0.1,0.2,0.4,0.2c0,0.4-0.2,0.6-0.5,0.6c-0.9,5.2-1.6,9.3-1.9,12.3l-1.3,10.7c-0.1,1-0.4,1.9-0.8,2.9l0,0
		c0,0.2,0.1,0.2,0.4,0.2l-0.6,1.6l-0.1,0.9c-1,8.4-2.9,12.6-5.5,12.8c-0.3,0-1.2,0.2-2.8,0.4l-0.3-0.6l-1,0.4c-1.1-0.5-2-1.2-2.9-2
		l-0.5,0.6l1.2,1.2c-0.8,0.1-2.2,1.5-4.1,4.2l-3.4,1.4l-3.6,0.2c-4.9-0.9-7.4-3.1-7.6-6.8c0-0.6,0-1.1,0.1-1.7l1-8.3
		c0-0.2,0.2-0.3,0.5-0.3c0-0.2-0.2-0.3-0.5-0.3c13.5-47.8,21.7-75.9,24.5-84.4c0.2,0,0.4-0.3,0.6-0.9c-0.7-1.1-1.2-3.3-1.3-6.5v-0.7
		c0.7,0,1.5-0.7,2.5-2c1.2-0.1,1.8-0.2,1.8-0.4l-0.2-1.5c1-0.1,1.9-1.4,2.7-4.1l0.9-0.1l-0.1,0.9l0.9-0.1v-0.6h0.5l4.6,2.8l0.1-1.5
		h0.9c0.1,0.6,0.1,1,0.2,1.5c0,0.4,0,0.8,0,1.2h0.5c0.2-1.8,0.6-2.8,1.2-2.8c1.3,0.9,2.3,6.5,2.9,16.6c7.6,23.9,11.7,37.8,12.4,41.6
		h0.5l0.6-1.6l3.4-16.6h0.4v-0.1c0-0.2-0.1-0.2-0.4-0.2c2.5-8.7,4.6-17.6,6.3-26.5h0.9c0.1-0.8,0.7-3.3,1.9-7.7h0.9l-0.2,1.2
		l0.1,3.1h0.5l0.4-3.1c0.1-0.4,0.5-0.7,1-0.7h0.5c0.4,1.7,0.7,3.4,0.8,5.1c0.1,1.3,0,2.6-0.1,4h0.4
		C588.4,292,590.9,284.7,594.7,273.5z"/>
	<path d="M660.3,288.5l0.9-0.1v2.9l0.4-0.1l0.4-1.5v-0.9l0.8-0.1c0.2,0,0.5,0.7,0.7,2.2c0.7,4,1.1,0.4,1.8,15.3
		c-0.1,8.1-0.5,22.5-1.2,43.2l-0.4,0.1l0.4,0.5c0,0.2-0.1,0.3-0.4,0.4v0.1c0,0.1,0.2,0.2,0.4,0.2c-0.3,3-0.4,5.1-0.5,6.5v1.2
		c0,0.5-0.2,0.9-0.4,1.2v0.1c0,0.1,0.2,0.2,0.4,0.2c-0.3,2.7-0.4,4.7-0.5,5.9l-0.1,8.8l-0.4,1.8l0.5,0.5c0,1.5-0.9,2.5-2.6,7.7
		l-0.5,4.2c0,0-2.2,1.2-3,1.1l-0.8,0.1l-3.4,1.7c-5.3,0.9-8.9-1.4-10.9-7c-0.2-0.8-0.3-1.6-0.4-2.3c-0.2-1.2-0.3-2.5-0.3-3.7v-3.8
		l-16.6-25.3l-0.4,0.1c0.1,0.6-0.1,1.3-0.4,1.8v0.1c0,0.1,0.2,0.2,0.4,0.2c0,0.4-0.1,0.6-0.4,0.7c-0.3,5-0.5,7.7-0.5,10.6l-0.2,6.7
		c0,0.9-0.2,1.8-0.4,2.7v0.1c0,0.1,0.2,0.2,0.4,0.2l-0.4,1.5v0.9c-0.1,8-1.4,12.2-3.9,12.6c-0.2,0-1.1,0.3-2.6,0.7l-0.4-0.5
		l-0.9,0.4c-1.1-0.4-2.1-0.9-3-1.6l-0.4,0.7l1.3,1c-0.7,0.2-1.9,1.7-3.4,4.4l-3.1,1.7l-3.4,0.6c-4.7-0.3-7.3-2.2-7.9-5.6
		c-0.1-0.5-0.1-1.1-0.1-1.6l0.1-7.9c0-0.2,0.2-0.3,0.5-0.4c0-0.2-0.2-0.3-0.5-0.2c7.7-46.5,12.5-72.7,14.3-81c0.2,0,0.4-0.4,0.4-1
		c-0.8-1-1.4-3-2-6l-0.1-0.6c0.6-0.1,1.3-0.8,2.1-2.1c1.1-0.2,1.6-0.4,1.7-0.6l-0.4-1.4c0.9-0.2,1.6-1.5,2.1-4.1l0.9-0.1v0.9
		l0.9-0.1v-0.6l0.4-0.1l4.7,2.2v-1.5l0.8-0.1c0.1,0.5,0.2,1,0.3,1.4c0.1,0.4,0.1,0.8,0.1,1.2l0.4-0.1c0-1.8,0.3-2.7,0.9-2.8
		c1.4,0.7,2.9,5.9,4.5,15.3c6.1,13.6,11.5,27.4,16.1,41.6l0.4-0.1l0.4-1.5l1.4-16l0.4-0.1v-0.1c0-0.1-0.2-0.2-0.4-0.2
		c1.5-8.1,2.6-16.3,3.1-24.5l0.9-0.1c0-0.7,0.3-3.2,1-7.5l0.9-0.1v1.2l0.4,2.9l0.4-0.1v-2.9c0.1-0.4,0.4-0.7,0.8-0.7l0.4-0.1
		c0.6,1.5,1,3.1,1.3,4.8c0.2,1.2,0.3,2.5,0.3,3.7l0.4-0.1C656.2,294.5,658,299.4,660.3,288.5z"/>
	<path d="M846.9,393.2c-0.6-2.9-1.5-5.7-2.9-8.4c0,0-3.7-22.6-11.7-29.2c-8.1-6.6-12.5-6.4-15.4-10.9c-2.9-4.4-9.6-9.8-12.8-11.8
		c-4.1-2.5-7-3.2-10.7-5.5c-0.7-3.2-2.1-6.3-4.2-8.9c0.5-4.3,3.9-8.4,3.9-8.4s3.7-5.1,3.2-6.7c-0.5-1.6-1.9-3.1-2.5-4.3
		c-0.5-1-1-2-1.4-3c-0.2-1-0.6-2-1.1-3c-0.6-1-1.6-1.6-2.8-1.8c-1.3-0.4-5.7-0.1-5.7-0.1s-4-1.5-7-0.3c-3,1.1-17.2,4.7-18.2,4.9
		s-2.6-3.5-5.9-3.5c-2,0-4,0.7-5.6,1.9c-3.7,0.2-3-1.8-8.2-2.1c-5.2-0.4-6.9,1.2-13.1,0.8s-6.2-0.8-9.2,1.5c-6-1.3-9.5,2.8-11.6,4.1
		c-2.1,1.3-4.7,2-4.9,3.1c-0.2,1.1-4.7,8.8-7.6,11.2c-2.9,2.3-1.5,7.7-1.8,11.2c-0.2,3.5-2.9,5.6-6.1,7.9
		c-3.3,2.3-12.3,4.4-7.3,11.4c5,7,6.4,3.3,9.5,5.6c3.1,2.3,3.7,8.4,2.4,10.1c-1.4,1.7-6.6,2.6-7.4,2.7c0-0.2-0.1-0.9-0.9-3.3
		c-1.4-4-5.8-1.1-6.8-0.1s1.7,5.4,0,9.1s3.1,5.5,5.2,9.9c2.1,4.4,10.5,9.3,17.6,13.9c7.1,4.5,19.8,4.1,25.3,6.3s13.7,1,16,3
		s6.6,9.6,9.3,10.4c2.7,0.8,2.3,2.7,3.8,4.7c1.6,2,0.1,9.4,2,8.3c2.7-1.7,2.4-11.2,4.7-8c2.7,3.7,0.7,17.3,4.3,15.7
		c3.6-1.6,1.2-18.6,3.6-13.9c2.4,4.7-0.6,17,3.8,13.6s3.6-13.5,5.4-8.2s2.9,3.8,3.9,10.5c5.3-4.1,1.8-14.5,5.1-10
		c6.6,7.1,1,11.7,5.8,8.1s0.3-13.4,5.5-8.9c5.2,4.5,5.2,13,6.8,13.2c3.2-0.1,1.8-11.5,4.6-13.5c2.3,2.3,2.7,11.6,4.6,11.6
		c3.1,0,2.4-11.8,4.2-12.2c3.6,1.8,0.2,10.1,2.9,11c5.5-5,2-12.8,4.3-10.4c3.7,3.7-1.7,14.5,3.2,9.1c4.9-5.3,0.8-12.3,3.5-8
		s-3.7,11.8,2.2,7.8c5.9-4,1-12.7,2.9-11.6c1.5,2.5,2,7.2,2.5,10.4c3.7-1.8,2-8.9,2.7-11c1.3,3.1,0.3,7.5,1.3,9.5
		c2.4-0.4,4.7-12.5,4-12.5c0,0,2.3-1.4,4-6.7C848.9,406.7,848.1,398.7,846.9,393.2z M727.3,341.4c1,8.9-4.5,12.9-5.8,14.2
		c-1.3,1.3-6.4,6.1-8.6,6.6c-2.2,0.5,0.1-6.3,3.2-8c1.5-0.8,5.5-8.8,4.1-13.6c-1.5-4.8-8.7-5.4-12.1-8.6s-4.6-4.6-2.5-12.4
		s3.9-8.1,5.3-8.1c1.4,0,11,3.7,12.1,5.4s4.7,7.2,4.9,13.1S726.2,332.5,727.3,341.4z M754.9,353.3c-2.1-0.7-4.4-0.8-6.6-0.1
		c-2,0.5-5.9,4.5-5.8,0.3c0.1-4.1,0.1-18.1,2.2-19.8s7.1-2,10.6,2.7c4,5.5,6.8,11.7,8.4,18.3C763.4,358.8,759.1,355.1,754.9,353.3
		L754.9,353.3z M821.5,386.6c-1.1,0.5-4.7,3.5-7.5,2c-1.3-0.7,0.4-9.4-1.7-13.3c-1-1.9-1.5-1.2-3.1-1.8c-0.9-0.4-1-3.5-2-4.2
		c-1.4-0.9-1.7-0.6-2.8-2s-2.8-5.6-0.7-6.6c2.2-1,10.2-2.2,16.7,9.5C827,381.7,822.6,386.1,821.5,386.6L821.5,386.6z M840,386.6
		c0,0-6-13.2-6.8-15.2c-0.8-2-1.1-4.5-2.2-6.1c-2.6-3.7-5.1-7.5-5.1-7.5c2-2.8,2.3-1.5,3.2-0.8c0.8,0.6,10.5,15.3,10.5,15.3
		S842,386.1,840,386.6L840,386.6z"/>
</g>
</svg>
