<svg xmlns="http://www.w3.org/2000/svg" viewBox="0 0 1000 750">
    <defs>
        <style>

            .b {
                fill: #40ff9b;
            }

            *{
            fill: black !important;
            }
        </style>
    </defs>
    <title>tyranno_1</title>
    <path class="b"
        d="M665.72,219.23A13.87,13.87,0,0,0,642,209.42L611.48,240l-48.7,48.69a13.87,13.87,0,0,1-19.62,0l-13.75-13.74a13.88,13.88,0,0,1,0-19.63l29.64-29.63A13.88,13.88,0,0,0,549.24,202H450.76A13.88,13.88,0,0,0,441,225.67l29.64,29.63a13.88,13.88,0,0,1,0,19.63l-13.75,13.74a13.87,13.87,0,0,1-19.62,0L388.52,240,358,209.42a13.87,13.87,0,0,0-23.68,9.81v98.48A13.87,13.87,0,0,0,358,327.52l29.77-29.76a13.87,13.87,0,0,1,19.62,0l29.87,29.86a13.87,13.87,0,0,0,19.62,0h0a13.88,13.88,0,0,1,23.69,9.81V568.55A19.47,19.47,0,0,0,500,588h0a19.47,19.47,0,0,0,19.47-19.47V337.44a13.88,13.88,0,0,1,23.69-9.82h0a13.87,13.87,0,0,0,19.62,0l29.87-29.86a13.87,13.87,0,0,1,19.62,0L642,327.52a13.87,13.87,0,0,0,23.68-9.81Z" />
    <rect class="b" x="552.97" y="370.11" width="33.5" height="184.11" rx="16.75" />
    <rect class="b" x="413.53" y="370.11" width="33.5" height="184.11" rx="16.75" />
</svg>