<?xml version="1.0" encoding="utf-8"?>
<!-- Generator: Adobe Illustrator 21.1.0, SVG Export Plug-In . SVG Version: 6.00 Build 0)  -->
<svg version="1.1" id="Ebene_1" xmlns="http://www.w3.org/2000/svg" xmlns:xlink="http://www.w3.org/1999/xlink" x="0px" y="0px"
	 viewBox="0 0 1000 1000" style="enable-background:new 0 0 1000 1000;" xml:space="preserve">
<style type="text/css">
	.st0{fill:#FFFFFF;}
	.st1{fill:none;}
</style>
<g>
	<path class="st0" d="M773.3,66.5c25.6,84.6,22.5,178.3,22.5,179.4l-0.1,2.2l0.2,2.2c4.2,59.3,12.6,227,0.6,289.6
		c-3.4,17.8-12.9,54.5-28.6,99.4c-12.8,36.6-34.3,91.6-63.9,145.8c-29.6,54-61.1,96.4-93.9,126.1c-17.7,16-35.8,28.3-53.8,36.4
		c-18.7,8.5-37.1,12.6-56.2,12.6c-19.1,0-37.5-4.1-56.2-12.6c-18-8.1-36.1-20.4-53.8-36.4c-32.7-29.6-64.3-72-93.9-126.1
		c-29.7-54.2-51.1-109.2-63.9-145.8c-15.7-44.9-25.3-81.6-28.6-99.4c-12-62.5-3.6-230.3,0.6-289.6l0.2-2.2l-0.1-2.2
		c0-0.3-1.2-33.8,3.4-79.5c3.8-36.8,10.2-70.5,19.1-99.9c8.1,7.5,17,16.2,26.2,25.8c45.3,47.2,77.4,96.3,92.9,141.9l12.7,39.7
		l38.7-14.9c2.7-0.9,36.6-11.5,102.7-11.8c66.1,0.4,100,10.9,102.7,11.8l38,14.7l13.4-39.4c15.5-45.6,47.7-94.7,92.9-141.9
		C756.2,82.7,765.2,74,773.3,66.5 M790.2,0c0,0-131.1,95.3-174,221.3c0,0-37.8-13.8-116.2-14.2c-78.5,0.4-116.2,14.2-116.2,14.2
		C340.9,95.3,209.8,0,209.8,0c-51.2,103-45.6,247.4-45.6,247.4s-15.6,218.5,0,300S294.9,1000,500,1000s320.2-371.2,335.7-452.7
		s0-300,0-300S841.4,103,790.2,0L790.2,0z"/>
</g>
<g>
	<path class="st1" d="M835.7,247.4c0,0,5.6-144.4-45.6-247.4c0,0-131.1,95.3-174,221.3c0,0-37.8-13.8-116.2-14.2
		c-78.5,0.4-116.2,14.2-116.2,14.2C340.9,95.3,209.8,0,209.8,0c-51.2,103-45.6,247.4-45.6,247.4s-15.6,218.5,0,300
		S294.9,1000,500,1000s320.2-371.2,335.7-452.7S835.7,247.4,835.7,247.4z"/>
</g>
</svg>
